<?xml version="1.0" encoding="UTF-8"?>
<svg id="Layer_2" data-name="Layer 2" xmlns="http://www.w3.org/2000/svg" xmlns:xlink="http://www.w3.org/1999/xlink" viewBox="0 0 1700 2400">
  <defs>
    <style>
      .cls-1 {
        fill: url(#radial-gradient-34);
      }

      .cls-2 {
        fill: url(#radial-gradient-10);
      }

      .cls-3 {
        fill: url(#radial-gradient-45);
      }

      .cls-4 {
        fill: url(#radial-gradient-56);
      }

      .cls-5 {
        fill: url(#radial-gradient-35);
      }

      .cls-6 {
        fill: url(#radial-gradient-46);
      }

      .cls-7 {
        fill: url(#radial-gradient-9);
      }

      .cls-8 {
        fill: url(#radial-gradient-28);
      }

      .cls-9 {
        fill: url(#radial-gradient-61);
      }

      .cls-10 {
        fill: url(#radial-gradient-48);
      }

      .cls-11 {
        fill: url(#radial-gradient-14);
      }

      .cls-12 {
        fill: url(#radial-gradient-58);
      }

      .cls-13 {
        fill: url(#radial-gradient-16);
      }

      .cls-14 {
        fill: url(#radial-gradient-40);
      }

      .cls-15 {
        fill: url(#radial-gradient-18);
      }

      .cls-16 {
        fill: url(#radial-gradient-38);
      }

      .cls-17 {
        fill: url(#radial-gradient-57);
      }

      .cls-18 {
        fill: url(#radial-gradient-5);
      }

      .cls-19 {
        fill: url(#radial-gradient-54);
      }

      .cls-20 {
        fill: url(#radial-gradient-37);
      }

      .cls-21 {
        fill: url(#radial-gradient);
      }

      .cls-22 {
        fill: url(#radial-gradient-3);
      }

      .cls-23 {
        fill: url(#radial-gradient-32);
      }

      .cls-24 {
        fill: url(#radial-gradient-24);
      }

      .cls-25 {
        fill: url(#radial-gradient-59);
      }

      .cls-26 {
        fill: url(#radial-gradient-20);
      }

      .cls-27 {
        fill: url(#radial-gradient-44);
      }

      .cls-28 {
        fill: url(#radial-gradient-29);
      }

      .cls-29 {
        fill: url(#radial-gradient-41);
      }

      .cls-30 {
        fill: url(#radial-gradient-39);
      }

      .cls-31 {
        fill: url(#radial-gradient-62);
      }

      .cls-32 {
        fill: url(#radial-gradient-49);
      }

      .cls-33 {
        fill: url(#radial-gradient-11);
      }

      .cls-34 {
        fill: url(#radial-gradient-26);
      }

      .cls-35 {
        fill: url(#radial-gradient-8);
      }

      .cls-36 {
        fill: url(#radial-gradient-42);
      }

      .cls-37 {
        fill: url(#radial-gradient-2);
      }

      .cls-38 {
        fill: url(#radial-gradient-23);
      }

      .cls-39 {
        fill: url(#radial-gradient-27);
      }

      .cls-40 {
        fill: url(#radial-gradient-30);
      }

      .cls-41 {
        fill: url(#radial-gradient-21);
      }

      .cls-42 {
        fill: url(#radial-gradient-53);
      }

      .cls-43 {
        fill: url(#radial-gradient-4);
      }

      .cls-44 {
        fill: url(#radial-gradient-25);
      }

      .cls-45 {
        fill: url(#radial-gradient-22);
      }

      .cls-46 {
        fill: url(#radial-gradient-36);
      }

      .cls-47 {
        fill: url(#radial-gradient-47);
      }

      .cls-48 {
        fill: url(#radial-gradient-12);
      }

      .cls-49 {
        fill: url(#radial-gradient-19);
      }

      .cls-50 {
        fill: url(#radial-gradient-52);
      }

      .cls-51 {
        fill: url(#radial-gradient-31);
      }

      .cls-52 {
        fill: url(#radial-gradient-51);
      }

      .cls-53 {
        fill: url(#radial-gradient-15);
      }

      .cls-54 {
        fill: url(#radial-gradient-50);
      }

      .cls-55 {
        fill: url(#radial-gradient-60);
      }

      .cls-56 {
        fill: url(#radial-gradient-6);
      }

      .cls-57 {
        fill: url(#radial-gradient-55);
      }

      .cls-58 {
        fill: url(#radial-gradient-33);
      }

      .cls-59 {
        fill: url(#radial-gradient-7);
      }

      .cls-60 {
        fill: url(#radial-gradient-17);
      }

      .cls-61 {
        fill: url(#radial-gradient-43);
      }

      .cls-62 {
        fill: url(#radial-gradient-13);
      }
    </style>
    <radialGradient id="radial-gradient" cx="-1219.58" cy="1411.62" fx="-1219.58" fy="1411.62" r="108.94" gradientTransform="translate(-28256.23 -22512.5) rotate(-90) scale(20.09 20.17)" gradientUnits="userSpaceOnUse">
      <stop offset="0" stop-color="#fff"/>
      <stop offset="1" stop-color="#c2c2c2"/>
    </radialGradient>
    <radialGradient id="radial-gradient-2" cx="-1219.58" cy="1411.62" fx="-1219.58" fy="1411.62" r="108.94" xlink:href="#radial-gradient"/>
    <radialGradient id="radial-gradient-3" cx="-1219.58" cy="1411.62" fx="-1219.58" fy="1411.62" r="108.95" xlink:href="#radial-gradient"/>
    <radialGradient id="radial-gradient-4" cx="-1219.58" cy="1411.62" fx="-1219.58" fy="1411.62" r="108.94" xlink:href="#radial-gradient"/>
    <radialGradient id="radial-gradient-5" cx="-1219.58" cy="1411.62" fx="-1219.58" fy="1411.62" r="108.94" xlink:href="#radial-gradient"/>
    <radialGradient id="radial-gradient-6" cx="-1219.58" cy="1411.62" fx="-1219.58" fy="1411.62" r="108.95" xlink:href="#radial-gradient"/>
    <radialGradient id="radial-gradient-7" cx="-1219.58" cy="1411.62" fx="-1219.58" fy="1411.62" r="108.94" xlink:href="#radial-gradient"/>
    <radialGradient id="radial-gradient-8" cx="-1219.58" cy="1411.62" fx="-1219.58" fy="1411.62" r="108.95" xlink:href="#radial-gradient"/>
    <radialGradient id="radial-gradient-9" cx="-1219.58" cy="1411.62" fx="-1219.58" fy="1411.62" r="108.94" xlink:href="#radial-gradient"/>
    <radialGradient id="radial-gradient-10" cx="-1219.58" cy="1411.62" fx="-1219.58" fy="1411.62" r="108.95" xlink:href="#radial-gradient"/>
    <radialGradient id="radial-gradient-11" cx="-1219.58" cy="1411.62" fx="-1219.58" fy="1411.62" r="108.94" xlink:href="#radial-gradient"/>
    <radialGradient id="radial-gradient-12" cx="-1219.58" cy="1411.62" fx="-1219.58" fy="1411.62" r="108.95" xlink:href="#radial-gradient"/>
    <radialGradient id="radial-gradient-13" cx="-1219.58" cy="1411.62" fx="-1219.58" fy="1411.62" r="108.94" xlink:href="#radial-gradient"/>
    <radialGradient id="radial-gradient-14" cx="-1219.58" cy="1411.62" fx="-1219.58" fy="1411.62" r="108.95" xlink:href="#radial-gradient"/>
    <radialGradient id="radial-gradient-15" cx="-1219.58" cy="1411.62" fx="-1219.58" fy="1411.62" r="108.94" xlink:href="#radial-gradient"/>
    <radialGradient id="radial-gradient-16" cx="-1219.58" cy="1411.62" fx="-1219.58" fy="1411.62" r="108.95" xlink:href="#radial-gradient"/>
    <radialGradient id="radial-gradient-17" cx="-1219.58" cy="1411.62" fx="-1219.58" fy="1411.62" r="108.94" xlink:href="#radial-gradient"/>
    <radialGradient id="radial-gradient-18" cx="-1219.58" cy="1411.62" fx="-1219.58" fy="1411.62" r="108.94" xlink:href="#radial-gradient"/>
    <radialGradient id="radial-gradient-19" cx="-1219.58" cy="1411.62" fx="-1219.58" fy="1411.62" r="108.94" xlink:href="#radial-gradient"/>
    <radialGradient id="radial-gradient-20" cx="-1219.58" cy="1411.62" fx="-1219.58" fy="1411.62" r="108.94" xlink:href="#radial-gradient"/>
    <radialGradient id="radial-gradient-21" cx="-1219.58" cy="1411.62" fx="-1219.58" fy="1411.62" r="108.94" xlink:href="#radial-gradient"/>
    <radialGradient id="radial-gradient-22" cx="-1219.58" cy="1411.6" fx="-1219.58" fy="1411.6" r="108.95" xlink:href="#radial-gradient"/>
    <radialGradient id="radial-gradient-23" cx="-1219.58" cy="1411.62" fx="-1219.58" fy="1411.62" r="108.94" xlink:href="#radial-gradient"/>
    <radialGradient id="radial-gradient-24" cx="-1219.58" cy="1411.62" fx="-1219.58" fy="1411.62" r="108.94" xlink:href="#radial-gradient"/>
    <radialGradient id="radial-gradient-25" cx="-1219.58" cy="1411.62" fx="-1219.58" fy="1411.62" r="108.94" xlink:href="#radial-gradient"/>
    <radialGradient id="radial-gradient-26" cx="-1219.58" cy="1411.62" fx="-1219.58" fy="1411.62" r="108.94" xlink:href="#radial-gradient"/>
    <radialGradient id="radial-gradient-27" cx="-1219.58" cy="1411.62" fx="-1219.58" fy="1411.62" r="108.94" xlink:href="#radial-gradient"/>
    <radialGradient id="radial-gradient-28" cx="-1219.58" cy="1411.62" fx="-1219.58" fy="1411.62" r="108.94" xlink:href="#radial-gradient"/>
    <radialGradient id="radial-gradient-29" cx="-1219.58" cy="1411.62" fx="-1219.58" fy="1411.62" r="108.94" xlink:href="#radial-gradient"/>
    <radialGradient id="radial-gradient-30" cx="-1219.58" cy="1411.62" fx="-1219.58" fy="1411.62" r="108.94" xlink:href="#radial-gradient"/>
    <radialGradient id="radial-gradient-31" cx="-1219.58" cy="1411.62" fx="-1219.58" fy="1411.62" r="108.94" xlink:href="#radial-gradient"/>
    <radialGradient id="radial-gradient-32" cx="-1219.58" cy="1411.62" fx="-1219.58" fy="1411.62" r="108.94" xlink:href="#radial-gradient"/>
    <radialGradient id="radial-gradient-33" cx="-1219.58" cy="1411.62" fx="-1219.58" fy="1411.62" r="108.94" xlink:href="#radial-gradient"/>
    <radialGradient id="radial-gradient-34" cx="-1219.58" cy="1411.62" fx="-1219.58" fy="1411.62" r="108.94" xlink:href="#radial-gradient"/>
    <radialGradient id="radial-gradient-35" cx="-1219.58" cy="1411.62" fx="-1219.58" fy="1411.62" r="108.94" xlink:href="#radial-gradient"/>
    <radialGradient id="radial-gradient-36" cx="-1219.58" cy="1411.62" fx="-1219.58" fy="1411.62" r="108.94" xlink:href="#radial-gradient"/>
    <radialGradient id="radial-gradient-37" cx="-1219.58" cy="1411.62" fx="-1219.58" fy="1411.62" r="108.94" xlink:href="#radial-gradient"/>
    <radialGradient id="radial-gradient-38" cx="-1219.58" cy="1411.62" fx="-1219.58" fy="1411.62" r="108.94" xlink:href="#radial-gradient"/>
    <radialGradient id="radial-gradient-39" cx="-1219.58" cy="1411.62" fx="-1219.58" fy="1411.62" r="108.94" xlink:href="#radial-gradient"/>
    <radialGradient id="radial-gradient-40" cx="-1219.58" cy="1411.62" fx="-1219.58" fy="1411.62" r="108.94" xlink:href="#radial-gradient"/>
    <radialGradient id="radial-gradient-41" cx="-1219.58" cy="1411.62" fx="-1219.58" fy="1411.62" r="108.94" xlink:href="#radial-gradient"/>
    <radialGradient id="radial-gradient-42" cx="-1219.58" cy="1411.62" fx="-1219.58" fy="1411.62" r="108.94" xlink:href="#radial-gradient"/>
    <radialGradient id="radial-gradient-43" cx="-1219.58" cy="1411.62" fx="-1219.58" fy="1411.62" r="108.94" xlink:href="#radial-gradient"/>
    <radialGradient id="radial-gradient-44" cx="-1219.58" cy="1411.62" fx="-1219.58" fy="1411.62" r="108.94" xlink:href="#radial-gradient"/>
    <radialGradient id="radial-gradient-45" cx="-1219.58" cy="1411.62" fx="-1219.58" fy="1411.62" r="108.94" xlink:href="#radial-gradient"/>
    <radialGradient id="radial-gradient-46" cx="-1219.58" cy="1411.62" fx="-1219.58" fy="1411.62" r="108.94" xlink:href="#radial-gradient"/>
    <radialGradient id="radial-gradient-47" cx="-1219.58" cy="1411.62" fx="-1219.58" fy="1411.62" r="108.94" xlink:href="#radial-gradient"/>
    <radialGradient id="radial-gradient-48" cx="-1219.58" cy="1411.62" fx="-1219.58" fy="1411.62" r="108.94" xlink:href="#radial-gradient"/>
    <radialGradient id="radial-gradient-49" cx="-1219.58" cy="1411.62" fx="-1219.58" fy="1411.62" r="108.94" xlink:href="#radial-gradient"/>
    <radialGradient id="radial-gradient-50" cx="-1219.58" cy="1411.62" fx="-1219.58" fy="1411.62" r="108.94" xlink:href="#radial-gradient"/>
    <radialGradient id="radial-gradient-51" cx="-1219.58" cy="1411.62" fx="-1219.58" fy="1411.62" r="108.94" xlink:href="#radial-gradient"/>
    <radialGradient id="radial-gradient-52" cx="-1219.58" cy="1411.62" fx="-1219.58" fy="1411.62" r="108.94" xlink:href="#radial-gradient"/>
    <radialGradient id="radial-gradient-53" cx="-1219.58" cy="1411.62" fx="-1219.58" fy="1411.62" r="108.94" xlink:href="#radial-gradient"/>
    <radialGradient id="radial-gradient-54" cx="-1219.58" cy="1411.62" fx="-1219.58" fy="1411.62" r="108.94" xlink:href="#radial-gradient"/>
    <radialGradient id="radial-gradient-55" cx="-1219.58" cy="1411.62" fx="-1219.58" fy="1411.62" r="108.94" xlink:href="#radial-gradient"/>
    <radialGradient id="radial-gradient-56" cx="-1219.58" cy="1411.62" fx="-1219.58" fy="1411.62" r="108.94" xlink:href="#radial-gradient"/>
    <radialGradient id="radial-gradient-57" cx="-1219.58" cy="1411.62" fx="-1219.58" fy="1411.62" r="108.94" xlink:href="#radial-gradient"/>
    <radialGradient id="radial-gradient-58" cx="-1219.58" cy="1411.62" fx="-1219.58" fy="1411.62" r="108.94" xlink:href="#radial-gradient"/>
    <radialGradient id="radial-gradient-59" cx="-1219.58" cy="1411.62" fx="-1219.58" fy="1411.62" r="108.94" xlink:href="#radial-gradient"/>
    <radialGradient id="radial-gradient-60" cx="-1219.58" cy="1411.62" fx="-1219.58" fy="1411.62" r="108.94" xlink:href="#radial-gradient"/>
    <radialGradient id="radial-gradient-61" cx="-1219.58" cy="1411.62" fx="-1219.58" fy="1411.62" r="108.94" xlink:href="#radial-gradient"/>
    <radialGradient id="radial-gradient-62" cx="-1219.58" cy="1411.62" fx="-1219.58" fy="1411.62" r="108.94" xlink:href="#radial-gradient"/>
  </defs>
  <g id="Layer_1-2" data-name="Layer 1">
    <g>
      <path class="cls-21" d="M1700,829.8c-57.23-43.92-116.89-85.66-175.49-126.65-17.92-12.53-36.44-25.49-54.43-38.2-143.38-101.23-248.9-197.93-322.57-295.61-90.81-120.41-133.45-244.57-126.98-369.35h-.41c-1.52,29.19-.45,58.47,3.3,87.28,4.34,33.35,12.33,67,23.74,100.02,21.08,60.99,54.75,122.38,100.07,182.48,73.7,97.72,179.25,194.45,322.67,295.71,17.99,12.7,36.52,25.66,54.43,38.19,58.67,41.04,118.39,82.82,175.67,126.79v-.67Z"/>
      <path class="cls-37" d="M1700,2377.04c-.97,2.23-1.96,4.46-2.91,6.69-2.35,5.48-4.63,10.88-6.88,16.27h.58c3.02-7.22,6.1-14.43,9.22-21.62v-1.33Z"/>
      <path class="cls-22" d="M1700,2244.8c-14.81,31.95-29,64.07-42.16,96.27-8.26,20.2-15.87,39.8-22.88,58.93h.65c18.99-51.83,40.91-103.1,64.39-153.87v-1.33Z"/>
      <path class="cls-43" d="M1700,833.32c-77.68-66.54-162.67-129.96-244.96-191.35l-.27-.2c-68.52-50.81-126.79-97.9-178.17-143.95-162.81-146.27-251.87-287.62-272.25-432.11-2.99-21.21-4.43-43.22-4.37-65.7h-.48c-.06,22.52,1.38,44.57,4.38,65.82,5.7,40.39,16.93,81.11,33.4,121.04,15.37,37.28,35.77,75.03,60.64,112.17,44.13,65.93,102.5,131.14,178.44,199.36,51.38,46.06,109.67,93.16,178.2,143.98l.27.2c82.37,61.44,167.44,124.93,245.18,191.53v-.79Z"/>
      <path class="cls-18" d="M1700,840.94c-5.8-5.59-11.71-11.22-17.77-16.91-66.23-62.19-145.64-129.39-242.78-205.46-49.34-38.64-114.02-90.15-176.7-145.91-165.19-147.57-253.18-281.23-276.92-420.61-2.86-16.77-4.67-34.03-5.54-52.05h-.54c.86,18.08,2.68,35.39,5.55,52.22,6.67,39.16,18.78,78.66,35.98,117.43,16,36.05,36.96,72.66,62.29,108.82,44.14,63.02,102.66,126.76,178.89,194.86,62.7,55.77,127.38,107.28,176.74,145.93,97.12,76.05,176.52,143.25,242.74,205.42,6,5.64,12.03,11.36,18.06,17.15v-.89Z"/>
      <path class="cls-56" d="M1700,2110.21c-46.02,96.44-87.85,192.54-118.26,289.79h.6c30.29-96.77,71.88-192.41,117.66-288.4v-1.39Z"/>
      <path class="cls-59" d="M1700,853.89c-13.42-14.76-27.64-29.84-42.82-45.38-69.31-70.92-149.89-144.62-233.03-213.13-54.56-44.95-116.4-95.91-175.25-147.86-112.94-100.32-247-237.48-281.59-409.12-2.46-12.24-4.34-25.01-5.71-38.4h-.61c1.37,13.47,3.26,26.32,5.74,38.63,14.86,73.75,48.4,145.48,102.53,219.28,43.97,59.96,102.63,122.22,179.33,190.35,58.86,51.96,120.71,102.92,175.27,147.88,83.13,68.49,163.69,142.18,232.99,213.08,14.34,14.68,28.81,29.86,43.17,45.6v-.92Z"/>
      <path class="cls-35" d="M1700,1973.68v-1.54c-4.54,9.41-8.89,18.48-13.12,27.36-41.37,86.7-88.56,189.69-124.86,296.19-12.22,35.84-22.63,70.53-31.36,104.3h.5c32.75-126.39,87.44-255.87,156.21-400,4.08-8.55,8.26-17.28,12.62-26.32Z"/>
      <path class="cls-7" d="M1700,873.96c-20.1-25.85-42.57-52.65-67.87-80.97-70.74-79.16-147.95-155.51-223.3-220.8-23-19.93-47.04-40.53-70.29-60.46-33.95-29.1-69.07-59.19-103.51-89.36-120.34-106.28-248.46-236.63-286.25-397.63-1.87-7.98-3.49-16.19-4.88-24.75h-.68c1.4,8.66,3.03,16.96,4.93,25.03,16.69,71.09,51.62,140.55,106.79,212.34,44.17,57.48,101.29,116.52,179.76,185.82,34.44,30.17,69.56,60.26,103.51,89.37,23.25,19.93,47.3,40.53,70.29,60.45,75.32,65.27,152.51,141.6,223.23,220.74,22.82,25.54,45.94,52.55,68.27,81.27v-1.06Z"/>
      <path class="cls-2" d="M1672.9,1889.63c8.98-18.43,18.05-37.13,27.1-56.01v-1.76c-9.04,18.89-18.26,37.94-27.65,57.2-14.93,30.9-28.46,59.53-41.37,87.52-58.66,127.25-118.69,271.84-149.35,423.41h.7c30.65-151.35,90.61-295.76,149.21-422.87,12.9-27.99,26.43-56.61,41.36-87.5Z"/>
      <path class="cls-33" d="M1700,904.68c-25.27-39.85-55.74-81.51-92.91-127.19-70.81-87.03-142.66-163.9-213.56-228.48-42.52-38.73-88.4-78.67-132.77-117.29-13.17-11.46-26.38-22.96-39.58-34.49-126.85-110.82-249.89-234.3-290.92-386.15-.98-3.63-1.9-7.33-2.78-11.09h-.77c.9,3.89,1.85,7.7,2.86,11.45,18.51,68.52,54.82,135.76,110.99,205.54,44.36,55.12,99.95,110.99,180.24,181.13,13.19,11.53,26.4,23.02,39.58,34.49,44.37,38.62,90.25,78.55,132.76,117.28,70.87,64.55,142.69,141.39,213.47,228.39,31.78,39.05,64.1,81.48,93.38,127.91v-1.51Z"/>
      <path class="cls-48" d="M1616.28,1866.33l7.5-15.62c25.85-53.85,51.98-108.29,76.22-162.96v-1.98c-24.41,55.13-50.76,110.03-76.83,164.33l-7.5,15.62c-13.22,27.55-26.87,57.14-40.59,87.96-48.97,110.03-84.61,207.03-108.96,296.52-14.1,51.81-24.58,101.52-31.58,149.8h.62c19.01-131.71,64.42-274.69,140.54-445.74,13.71-30.81,27.36-60.39,40.57-87.93Z"/>
      <path class="cls-62" d="M1700,954.53c-27.64-59.66-65.28-121.11-117.95-192.55-69.25-93.92-135.92-171.16-203.83-236.16-50.62-48.45-104.93-96.5-170.9-153.74-118.26-102.62-248.17-224.38-294.77-372.08h-.87c20.45,65.12,57.94,129.42,114.58,196.49,55.13,65.29,122.26,125.89,180.66,176.56,65.96,57.23,120.26,105.28,170.87,153.71,67.87,64.96,134.5,142.16,203.72,236.03,42.11,57.11,85.1,121.24,118.49,194.18v-2.45Z"/>
      <path class="cls-11" d="M1559.66,1843.03c7.58-16,15.38-32.32,22.93-48.11,41.67-87.24,84.15-176.15,117.42-264.87v-2.45c-33.36,89.3-76.12,178.83-118.08,266.66-7.54,15.79-15.34,32.12-22.93,48.12-13.06,27.55-26.46,57.29-39.81,88.4-46.06,107.34-79.11,204.37-101.03,296.66-14.2,59.76-23.61,116.94-28.39,172.58h.76c12.1-141.66,54.24-293.6,129.34-468.62,13.35-31.1,26.73-60.82,39.79-88.35Z"/>
      <path class="cls-53" d="M1700,1060.63c-7.73-37.43-18.83-74.49-33.44-111.72-24.56-62.56-59.37-126.88-109.55-202.43-65.55-98.67-129.04-178.43-194.09-243.84-45.99-46.24-99.83-95.72-169.45-155.7C1067.89,238.72,951.03,130.6,899.3,0h-.98c51.72,131.13,168.85,239.52,294.72,347.99,69.6,59.97,123.42,109.43,169.39,155.66,65.01,65.36,128.45,145.06,193.96,243.67,61.03,91.86,118.92,193.25,143.61,317.49v-4.19Z"/>
      <path class="cls-13" d="M1503.03,1819.73c12.12-25.86,24.74-52.25,36.95-77.77,64.76-135.42,131.59-275.18,160.02-410.83v-4.42c-27.91,136.74-95.36,277.85-160.73,414.54-12.21,25.52-24.83,51.92-36.95,77.78-12.96,27.65-26.09,57.54-39.03,88.84-73.78,178.45-112.03,340.46-115.99,492.14h.86c3.97-151.46,42.18-313.25,115.87-491.5,12.93-31.28,26.05-61.14,39-88.78Z"/>
      <path class="cls-60" d="M886.75,0c24.51,50.76,61.01,101.91,110.96,155.5,51.8,55.58,110.32,106.55,181.45,167.42,66.31,56.75,121.24,108.3,167.92,157.59,62.91,66.43,123.16,148.64,184.2,251.31,95.57,160.78,134.17,284.24,133.21,426.14-.34,50.16-4.21,91.77-12.19,130.93-26.88,132-92.91,269.15-156.76,401.77-16.58,34.43-33.72,70.04-49.91,105-12.87,27.79-25.74,57.83-38.25,89.27-40.6,102.04-69.27,201.93-85.23,296.88-12.47,74.2-17.49,147.3-15.04,218.18h.84c-5.87-161.58,27.14-330.63,100.23-514.37,12.5-31.42,25.36-61.43,38.22-89.21,16.18-34.94,33.32-70.55,49.9-104.97,63.89-132.71,129.96-269.94,156.88-402.15,8-39.28,11.89-81,12.23-131.29.51-76.37-11.26-149.28-35.99-222.91-21.18-63.06-52.15-127.92-97.45-204.12-61.08-102.76-121.39-185.03-184.36-251.53-46.71-49.33-101.67-100.9-168-157.67C1065.27,223.94,947.37,122.98,887.85,0h-1.1Z"/>
      <path class="cls-15" d="M877.16,0c60.4,104.55,163.85,192.39,272.65,284.73l15.46,13.13c64.13,54.5,120.13,108.17,166.45,159.53,61.35,68.02,118.41,152.72,174.44,258.95,83.76,158.79,116.83,286.41,110.6,426.74-2.23,50.27-7.34,91.1-16.06,128.48-28.4,121.71-90.05,248.29-149.67,370.7-20.75,42.6-42.21,86.66-62.07,130.07-12.79,27.96-25.4,58.15-37.47,89.72-71.26,186.35-98.82,367.06-82.21,537.96h.99c-16.62-170.64,10.9-351.11,82.08-537.25,12.06-31.54,24.66-61.7,37.43-89.63,19.85-43.4,41.3-87.44,62.05-130.04,59.66-122.49,121.35-249.15,149.79-371.05,8.75-37.5,13.87-78.44,16.11-128.84,3.38-76.04-4.94-148.65-25.43-221.97-17.81-63.71-44.93-129.08-85.37-205.74-56.08-106.33-113.21-191.12-174.63-259.22-46.35-51.4-102.39-105.11-166.55-159.64l-15.46-13.13C1041.88,191.5,938.78,103.97,878.42,0h-1.26Z"/>
      <path class="cls-49" d="M869.96,0c59.41,86.89,149.08,161.96,243.09,240.62,12.72,10.64,25.52,21.35,38.34,32.17,63.36,53.47,118.87,107.8,164.97,161.47,60.15,70.03,114.02,157.22,164.68,266.58,73.41,158.47,99.72,286.28,87.98,427.35-4.25,51.06-10.4,89.93-19.93,126.03-29.6,112.1-87.33,228.71-143.15,341.49-24.81,50.12-50.47,101.95-73.66,153.28-12.72,28.15-25.06,58.49-36.69,90.16-70.25,191.38-90.94,379.94-61.68,560.86h1.07c-29.28-180.66-8.62-368.97,61.54-560.13,11.61-31.64,23.94-61.93,36.65-90.05,23.18-51.3,48.83-103.12,73.64-153.23,55.86-112.85,113.63-229.54,143.27-341.82,9.56-36.22,15.72-75.19,19.98-126.38,6.31-75.81,1.46-148.13-14.83-221.1-14.4-64.52-37.7-130.38-73.33-207.28-50.72-109.48-104.66-196.8-164.9-266.92-46.15-53.72-101.7-108.09-165.11-161.6-12.82-10.82-25.62-21.53-38.34-32.17C1019.99,161.03,930.72,86.3,871.41,0h-1.45Z"/>
      <path class="cls-26" d="M865.42,0c56.41,70.51,132.84,133.21,212.66,198.64,19.44,15.94,39.55,32.43,59.43,49.08,62.88,52.69,117.89,107.66,163.5,163.4,59.2,72.36,109.88,162.04,154.91,274.2,63.34,157.72,82.89,285.71,65.37,427.96-4.24,34.42-10.77,79.58-23.8,123.58-30.5,103.06-82.24,205.48-137.02,313.91-28.82,57.06-58.63,116.06-84.87,174.86-12.65,28.35-24.73,58.83-35.91,90.6-68.88,195.75-82.01,391.58-39.03,582.03.13.58.27,1.15.4,1.73h1.17c-.17-.73-.35-1.46-.51-2.19-42.89-190.04-29.78-385.46,38.96-580.83,11.16-31.72,23.22-62.16,35.86-90.47,26.22-58.77,56.02-117.75,84.83-174.79,54.81-108.51,106.59-211,137.13-314.22,13.07-44.15,19.62-89.41,23.87-123.92,17.57-142.65-2.02-270.97-65.51-429.05-45.1-112.32-95.86-202.15-155.16-274.63-45.66-55.8-100.72-110.83-163.66-163.57-19.88-16.66-39.99-33.15-59.44-49.09-79.31-65.03-155.29-127.34-211.53-197.26h-1.67Z"/>
      <path class="cls-41" d="M863.96,0c51.27,55.33,114.68,105.99,180.58,158.63,25.88,20.67,52.65,42.04,79.08,64.03,62.58,52.07,117.09,107.69,162.02,165.33,58.41,74.95,105.89,167.13,145.16,281.81,53.6,156.57,66.39,284.74,42.76,428.57-6.01,36.57-13.99,79.55-27.67,121.13-31.1,94.52-79.69,188.41-131.13,287.81-32.84,63.46-66.8,129.08-95.83,194.97-12.59,28.56-24.41,59.2-35.13,91.04-64.84,192.51-71.68,387.72-20.34,580.2,2.36,8.84,4.89,17.67,7.56,26.47h1.26c-2.72-8.96-5.3-17.98-7.72-27.04-51.22-192.02-44.39-386.78,20.3-578.86,10.71-31.79,22.51-62.37,35.07-90.88,29.01-65.84,62.96-131.43,95.79-194.87,51.48-99.47,100.1-193.42,131.24-288.09,13.72-41.72,21.73-84.81,27.75-121.46,23.7-144.25,10.88-272.76-42.85-429.71-39.33-114.89-86.9-207.25-145.44-282.34-44.99-57.72-99.57-113.42-162.22-165.54-26.44-22-53.21-43.38-79.1-64.05C979.76,104.98,916.88,54.73,865.9,0h-1.94Z"/>
      <path class="cls-45" d="M865.99,0c43.86,41.27,94.2,80.22,146.2,120.44,31.96,24.72,65,50.28,97.54,77.15,62.39,51.53,116.41,107.81,160.54,167.26,56.93,76.69,102.48,174.06,135.39,289.42,44.25,155.07,50.27,283.43,20.15,429.19-7.93,38.37-17.23,79.3-31.54,118.68-31.4,86.42-77.03,172.19-125.34,263-36.92,69.39-75.09,141.14-106.69,213.8-12.52,28.79-24.08,59.57-34.36,91.49-61.07,189.76-61.63,384.34-1.64,578.36,5.33,17.23,11.22,34.31,17.64,51.2h1.4c-6.52-17.12-12.51-34.43-17.91-51.9-59.84-193.52-59.29-387.62,1.63-576.89,10.25-31.86,21.79-62.57,34.28-91.3,31.57-72.58,69.73-144.3,106.63-213.66,48.35-90.87,94.01-176.7,125.46-263.25,14.35-39.51,23.68-80.54,31.63-118.99,15.62-75.59,21.29-147.16,17.33-218.81-3.68-66.76-15.96-135.97-37.53-211.57-32.98-115.6-78.64-213.19-135.7-290.06-44.21-59.56-98.3-115.92-160.78-167.52-32.55-26.89-65.61-52.46-97.57-77.18-51.36-39.72-101.09-78.19-144.53-118.88h-2.23Z"/>
      <path class="cls-38" d="M871.97,0c34.12,28.32,71.02,55.81,108.87,84,37.74,28.11,76.77,57.17,115.01,88.53,62.27,51.06,115.79,107.99,159.06,169.19,56.31,79.65,98.58,179.58,125.63,297.02,34.85,151.26,34.09,283.82-2.45,429.82-8.93,35.67-19.77,77.02-35.41,116.24-31.4,78.68-74.21,156.71-119.55,239.32-41.1,74.9-83.59,152.34-117.57,231.49-12.46,29.03-23.76,59.97-33.58,91.94-57.56,187.46-51.82,381.43,17.06,576.53,8.98,25.45,19.36,50.82,30.92,75.93h1.52c-11.65-25.22-22.13-50.85-31.28-76.75-68.69-194.57-74.42-388-17.02-574.93,9.79-31.9,21.06-62.75,33.49-91.71,33.94-79.07,76.42-156.47,117.49-231.32,45.36-82.66,88.21-160.74,119.65-239.54,15.7-39.35,26.56-80.78,35.51-116.53,36.65-146.41,37.41-279.35,2.46-431.04-27.13-117.73-69.51-217.92-125.97-297.79-43.36-61.32-96.97-118.35-159.34-169.49-38.27-31.38-77.3-60.45-115.06-88.57-37.12-27.64-73.33-54.61-106.87-82.34h-2.58Z"/>
      <path class="cls-24" d="M882.26,0c22.03,16.39,44.85,32.66,68.06,49.21,43.29,30.86,88.06,62.78,131.64,98.25,62.22,50.64,115.23,108.21,157.58,171.12,55.71,82.76,94.7,185.25,115.88,304.62,26.49,149.33,18.77,282.08-25.05,430.44-10.98,37.18-23.06,76.58-39.29,113.79-31.09,71.29-71.18,141.91-113.63,216.67-45.42,80-92.39,162.73-128.58,248.15-12.39,29.25-23.43,60.33-32.8,92.39-54.26,185.59-42.22,378.94,35.76,574.69,13.45,33.75,29.34,67.46,47.35,100.66h1.52c-17.94-33.14-33.93-67.08-47.68-101.61-77.76-195.18-89.77-387.95-35.68-572.95,9.35-31.97,20.35-62.96,32.71-92.13,36.14-85.31,83.08-167.99,128.47-247.94,42.47-74.81,82.59-145.48,113.72-216.87,16.28-37.33,28.38-76.82,39.39-114.06,43.94-148.78,51.69-281.92,25.11-431.69-21.24-119.71-60.34-222.5-116.23-305.52-42.44-63.05-95.57-120.74-157.9-171.47-43.61-35.5-88.4-67.43-131.71-98.31-22.38-15.96-44.4-31.66-65.7-47.45h-2.95Z"/>
      <path class="cls-44" d="M896.98,0c7.79,5.31,15.62,10.63,23.52,15.99,48.67,33.02,99,67.16,147.58,106.41,62.2,50.25,114.72,108.47,156.1,173.04,54.35,84.8,91.04,192.76,106.13,312.2,18.6,147.32,3.91,280.27-47.65,431.08-13.65,39.94-26.33,75.89-43.16,111.35-30.47,64.18-67.89,127.7-107.5,194.95-49.92,84.76-101.55,172.4-139.79,263.89-12.33,29.51-23.11,60.75-32.02,92.83-51.15,184.13-32.82,376.87,54.47,572.87,18.96,42.58,41.5,84.55,67.06,125.39h1.9c-25.86-41.17-48.64-83.51-67.77-126.47-87.02-195.4-105.3-387.51-54.33-570.99,8.88-31.99,19.62-63.12,31.92-92.54,38.19-91.36,89.77-178.94,139.66-263.63,39.64-67.29,77.07-130.84,107.58-195.11,16.89-35.57,29.58-71.59,43.26-111.59,51.7-151.23,66.43-284.56,47.77-432.34-15.13-119.83-51.96-228.16-106.49-313.25-41.49-64.74-94.13-123.1-156.46-173.45-48.63-39.29-98.98-73.44-147.67-106.48-6.98-4.73-13.9-9.44-20.8-14.13h-3.31Z"/>
      <path class="cls-34" d="M915.75,0c46.18,29.79,93.22,61.06,138.45,97.33,62.22,49.89,114.24,108.76,154.62,174.96,67.9,111.33,89.89,235.35,96.38,319.79,11.17,145.34-10.5,278.49-70.25,431.71-13.23,33.92-28.22,72.37-47.04,108.91-29.53,57.34-64.27,114.03-101.05,174.05-54.65,89.18-111.16,181.39-151.32,278.81-12.27,29.75-22.78,61.14-31.24,93.28-25.35,96.26-30.45,196.5-15.16,297.92,13.57,90.03,43.29,181.91,88.34,273.11,25.06,50.74,55.61,101.12,90.65,150.11h2.12c-35.42-49.37-66.29-100.17-91.55-151.33-96.44-195.24-121-386.69-72.99-569.02,8.43-32.03,18.9-63.31,31.13-92.96,40.1-97.25,96.56-189.39,151.17-278.5,36.8-60.05,71.56-116.77,101.13-174.19,18.87-36.65,33.89-75.16,47.14-109.13,59.91-153.64,81.63-287.17,70.43-432.98-6.51-84.74-28.58-209.23-96.75-321-40.49-66.39-92.65-125.42-155.02-175.43-44.31-35.53-90.31-66.24-135.55-95.46h-3.62Z"/>
      <path class="cls-39" d="M937.51,0c34.72,22.06,69.34,45.63,102.81,72.27,62.26,49.55,113.78,109.06,153.13,176.88,67.11,115.66,84.15,241.87,86.63,327.37,4.16,143.49-24.48,276.84-92.86,432.36-15.45,35.14-31.43,71.48-50.91,106.47-28.26,50.74-60.29,100.84-94.2,153.89-59.64,93.3-121.3,189.78-163.27,292.99-12.19,30-22.44,61.53-30.46,93.73-23.94,96.15-26.45,196.45-7.46,298.13,16.71,89.47,50.14,180.67,99.34,271.07,32.13,59.02,71.76,117.74,117.59,174.84h2.35c-46.32-57.53-86.34-116.71-118.72-176.19-106-194.74-136.84-385.52-91.64-567.05,7.99-32.08,18.2-63.49,30.35-93.37,41.88-103.01,103.49-199.4,163.08-292.61,33.93-53.08,65.97-103.21,94.27-154.01,19.54-35.07,35.54-71.47,51.01-106.66,68.56-155.92,97.27-289.66,93.09-433.62-2.49-85.86-19.61-212.59-87-328.74-39.48-68.04-91.16-127.74-153.59-177.42-32.48-25.85-66.04-48.82-99.71-70.31h-3.83Z"/>
      <path class="cls-8" d="M960.51,0c22.34,14.64,44.42,30.22,65.92,47.2,62.33,49.22,113.35,109.38,151.65,178.8,66.26,120.1,78.38,248.44,76.89,334.95-2.45,141.87-38.06,275.41-115.46,433l-.44.9c-16.75,34.11-34.07,69.37-54.35,103.13-26.66,44.36-55.91,88.13-86.87,134.46-64.91,97.13-132.03,197.56-175.69,306.45-12.13,30.25-22.12,61.94-29.68,94.18-22.56,96.1-22.48,196.47.24,298.35,19.85,89.04,56.98,179.55,110.36,269.02,39.76,66.64,89.72,133.6,148.59,199.56h2.6c-59.48-66.45-109.91-133.92-149.96-201.05-115.68-193.9-152.79-384.02-110.28-565.08,7.54-32.1,17.48-63.66,29.56-93.78,43.56-108.65,110.61-208.98,175.46-306.01,30.98-46.36,60.24-90.14,86.93-134.55,20.33-33.84,37.67-69.15,54.44-103.3l.44-.89c77.59-157.98,113.29-291.91,115.75-434.26,1.5-86.91-10.68-215.83-77.25-336.48-38.44-69.67-89.63-130.04-152.16-179.41-20.52-16.2-41.54-31.12-62.81-45.17h-3.87Z"/>
      <path class="cls-28" d="M982.72,0c10.06,7.1,20.02,14.44,29.84,22.14,62.41,48.9,112.93,109.7,150.16,180.71,50.99,97.23,74.83,218.88,67.15,342.54-8.73,140.56-51.31,274.3-138.06,433.64l-.38.71c-18.17,33.37-36.95,67.89-58.29,100.87-24.7,38.19-51.06,75.83-78.97,115.67-70.52,100.68-143.44,204.78-188.68,319.26-12.06,30.53-21.78,62.37-28.91,94.64-21.2,96.09-18.54,196.55,7.93,298.6,23,88.7,63.84,178.51,121.39,266.93,47.9,73.6,108.73,147.99,183.51,224.29h2.88c-75.56-76.88-136.94-151.81-185.17-225.92-86.26-132.53-178.64-337.81-128.92-563.12,7.08-32.11,16.77-63.8,28.77-94.18,45.13-114.2,117.97-218.19,188.41-318.76,27.92-39.86,54.29-77.51,79.02-115.74,21.38-33.06,40.19-67.61,58.38-101.03l.39-.71c86.95-159.72,129.64-293.85,138.4-434.89,7.72-124.26-16.25-246.51-67.49-344.23-37.39-71.29-88.09-132.33-150.72-181.4-8.84-6.93-17.79-13.57-26.82-20.02h-3.8Z"/>
      <path class="cls-40" d="M1002.33,0c60.78,48.13,109.58,108.54,145.02,179.7,50.22,100.83,70.61,225.17,57.42,350.11-14.75,139.63-64.3,273.57-160.67,434.29-18.66,31.13-39.81,66.4-62.55,99.13-22.38,32.22-45.71,63.93-70.41,97.5-76.5,103.96-155.61,211.47-202.33,331.47-11.99,30.78-21.45,62.77-28.13,95.1-46.84,226.65,54.65,431.64,148.03,563.69,62.71,88.68,140.33,171.81,222,249.01h3.15c-82.39-77.71-160.76-161.43-223.94-250.78-93.03-131.56-194.16-335.71-147.57-561.16,6.64-32.15,16.06-63.97,27.98-94.59,46.6-119.68,125.61-227.05,202.02-330.89,24.71-33.58,48.05-65.3,70.45-97.54,22.78-32.8,43.95-68.11,62.63-99.26,96.59-161.09,146.26-295.41,161.06-435.53,13.26-125.6-7.24-250.6-57.73-351.98-35.06-70.4-83.13-130.31-142.87-178.26h-3.56Z"/>
      <path class="cls-51" d="M1017.93,0c47.15,43.51,85.43,96,114.05,156.54,49.4,104.48,66.34,231.51,47.69,357.7-20.56,139.13-77.08,273.27-183.27,434.94-22.81,34.73-43.55,65.97-66.43,96.69-19.68,26.43-40.75,53.62-61.12,79.92-82.88,106.98-168.59,217.61-216.73,343.08-11.91,31.06-21.11,63.2-27.35,95.55-43.79,227.19,66.51,430.94,166.75,561.85,74.7,97.56,167.38,187.5,264.1,273.73h3.41c-97.54-86.83-191.08-177.4-266.31-275.64-99.86-130.41-209.75-333.29-166.21-559.19,6.2-32.16,15.35-64.12,27.2-95,47.99-125.1,133.59-235.58,216.36-342.42,20.38-26.31,41.45-53.5,61.15-79.95,22.92-30.77,43.68-62.05,66.51-96.8,106.42-162.03,163.08-296.55,183.71-436.16,18.75-126.89,1.71-254.64-47.97-359.72-28.29-59.84-65.96-111.83-112.26-155.11h-3.28Z"/>
      <path class="cls-23" d="M1029.23,0c35.45,38.27,64.73,82.88,87.38,133.38,48.51,108.18,61.99,237.9,37.96,365.28-26.24,139.08-89.73,273.42-205.88,435.6-20.65,28.83-44.81,62.26-70.31,94.24-16.42,20.6-33.71,41.76-50.42,62.22-89.86,110.01-182.79,223.77-232.52,354.81-11.89,31.59-20.83,63.89-26.57,96-17.24,96.31-6.81,197.06,30.98,299.46,32.58,88.27,84.56,175.93,154.5,260.54,88.86,107.51,199.82,204.68,308.6,298.46h3.61c-109.56-94.44-221.55-192.26-311.02-300.5-106.72-129.11-225.41-330.59-184.85-557.24,5.71-31.9,14.59-64,26.41-95.4,49.57-130.61,142.37-244.21,232.1-354.06,16.72-20.47,34.01-41.63,50.44-62.24,25.53-32.02,49.72-65.48,70.38-94.34,116.39-162.52,180.04-297.23,206.37-436.79,24.17-128.13,10.6-258.63-38.2-367.46-22.35-49.85-51.13-93.97-85.88-131.96h-3.07Z"/>
      <path class="cls-58" d="M1036.51,0c25.75,32.68,47.42,69.48,64.73,110.22,46.87,110.29,57.16,246.19,28.24,372.87-31.85,139.49-102.32,274.03-228.48,436.25-29.33,37.7-52.21,66.01-74.19,91.8-12.96,15.2-26.43,30.79-39.46,45.86-97.18,112.46-197.67,228.75-248.59,365.19-11.87,31.99-20.54,64.45-25.79,96.46-16.06,96.37-3.08,197.23,38.57,299.75,35.85,88.25,91.57,175.19,165.63,258.41,83.49,93.81,183.62,178.48,280.46,260.35,24.42,20.65,49.17,41.59,73.85,62.83h3.73c-25.6-22.06-51.29-43.8-76.63-65.22-96.78-81.83-196.86-166.45-280.24-260.14-93.12-104.63-243.37-315.91-203.48-555.28,5.21-31.79,13.83-64.02,25.62-95.8,50.74-135.95,151.08-252.06,248.11-364.36,13.03-15.08,26.5-30.67,39.47-45.88,22-25.81,44.91-54.15,74.25-91.88,126.43-162.55,197.06-297.45,229.02-437.42,29.1-127.45,18.74-264.21-28.44-375.2-17.05-40.13-38.29-76.46-63.47-108.81h-2.91Z"/>
      <path class="cls-1" d="M1040.17,0c17.71,26.58,33,55.61,45.7,87.06,45.81,114.2,52.56,252.87,18.52,380.46-48,179.88-159.4,327.98-251.09,436.9-26.73,31.76-53,61.82-78.07,89.35-9.13,10.03-18.35,20.09-27.61,30.2-104.98,114.61-213.53,233.12-265.54,374.88-11.73,32.08-20.14,64.69-25.01,96.92-36.96,242.48,123.8,452.63,222.92,556.32,76.13,79.64,163.93,151.51,248.85,221.02,50.1,41.01,101.34,82.97,150.7,126.89h3.78c-50.23-44.84-102.47-87.6-153.51-129.38-84.86-69.47-172.62-141.3-248.66-220.84-98.71-103.26-258.83-312.46-222.12-553.33,4.83-31.98,13.19-64.35,24.83-96.21,51.8-141.22,160.18-259.54,265-373.96,9.26-10.12,18.48-20.18,27.61-30.21,25.09-27.55,51.37-57.63,78.13-89.41,91.88-109.14,203.51-257.56,251.67-438.05,34.26-128.4,27.46-267.97-18.66-382.94-12.46-30.88-27.4-59.45-44.67-85.66h-2.75Z"/>
      <path class="cls-5" d="M1041.03,0c77.73,138.47,79.62,316.03,38.27,451.95-61.64,202.64-207.36,371.81-355.65,524.45l-14.78,15.19c-138.21,142.03-281.11,288.9-307.71,481.3-13.38,96.81,4.8,197.91,54.04,300.49,41.89,87.26,106.76,175.09,187.61,253.98,70.69,68.99,149.78,131.1,226.26,191.16,72.92,57.27,147.95,116.23,216.14,181.48h3.7c-68.95-66.3-145.01-126.05-218.89-184.08-76.44-60.03-155.47-122.1-226.09-191.01-80.63-78.68-145.31-166.23-187.05-253.18-48.91-101.88-66.97-202.21-53.7-298.2,26.45-191.28,169.03-337.81,306.91-479.51l14.78-15.19c148.52-152.87,294.48-322.36,356.32-525.64,31.64-104.03,36-217.98,12.25-320.86-11.13-48.24-28-92.61-50.08-132.33h-2.35Z"/>
      <path class="cls-46" d="M993.79,0c83.34,140.63,85.86,326.79,43.79,467.08-29.62,98.91-80.17,197.78-154.53,302.26-60.17,84.87-129.71,163.81-183.58,223.11l-14.69,16.15c-59.94,65.82-121.92,133.89-172.97,207.35-65.29,93.19-102.35,181.75-113.29,270.75-13.98,113.07,13.88,231.67,82.8,352.49,39.36,69.34,90.68,136.83,152.51,200.6,67.2,69.45,141.93,132.37,214.2,193.21,63.18,53.2,128.01,107.82,188.03,167.01h3.61c-60.77-60.19-126.54-115.61-190.62-169.56-72.23-60.81-146.91-123.69-214.03-193.05-61.68-63.61-112.86-130.92-152.1-200.05-68.51-120.1-96.22-237.88-82.35-350.06,10.86-88.39,47.74-176.44,112.73-269.21,50.97-73.33,112.89-141.33,172.78-207.1l14.69-16.15c53.91-59.34,123.52-138.36,183.76-223.33,74.55-104.75,125.25-203.92,154.97-303.18,30.92-103.12,36.02-215.91,14.33-317.59-11.87-55.68-31.24-106.34-57.34-150.72h-2.69Z"/>
      <path class="cls-20" d="M947.38,0c89.37,141.23,92.64,332.76,48.46,482.21-28.81,97.74-77.3,196.59-148.24,302.2-56.32,84.5-118.72,160.69-172.34,224.08l-10.47,12.36c-56.94,67.18-115.81,136.65-164.37,211.05-61.87,94.78-95.1,180.13-104.58,268.59-12.06,111.04,15.65,228.72,82.37,349.76,38.48,69.81,87.81,137.76,146.61,201.95,63.62,69.74,133.89,133.31,201.86,194.79,54.3,49.12,109.88,99.42,162.16,153.01h3.5c-53-54.54-109.45-105.64-164.59-155.52-67.92-61.44-138.16-124.98-201.7-194.63-58.66-64.04-107.85-131.8-146.23-201.41-66.34-120.35-93.9-237.24-81.93-347.43,9.42-87.85,42.49-172.71,104.07-267.05,48.47-74.26,107.29-143.67,164.18-210.79l10.47-12.36c53.66-63.45,116.12-139.71,172.51-224.31,71.11-105.86,119.73-205,148.64-303.07,30.21-102.2,36.03-213.83,16.41-314.32-12.37-63.34-34.24-120.33-64.52-169.11h-2.25Z"/>
      <path class="cls-16" d="M900.38,0c94.93,142.69,98.62,343.22,53.74,497.34-28.01,96.58-73.11,192.59-141.95,302.14-54.69,87.04-114.82,166-161.1,225.06l-7.95,10.13c-53.38,67.99-108.58,138.29-154.05,213.19-57.46,94.65-87.93,179.31-95.88,266.42-10.2,109.22,17.37,225.98,81.93,347.02,37.37,70.06,84.71,138.46,140.7,203.3,59.92,69.82,125.65,133.85,189.21,195.78,46.3,45.11,93.59,91.19,138.66,139.61h3.4c-45.76-49.32-93.85-96.19-140.93-142.05-63.53-61.89-129.21-125.89-189.06-195.63-55.87-64.69-103.09-132.92-140.35-202.78-64.21-120.38-91.63-236.39-81.51-344.8,7.89-86.52,38.21-170.69,95.4-264.89,45.39-74.76,100.54-145,153.87-212.92l7.95-10.13c46.31-59.11,106.49-138.14,161.25-225.29,69-109.8,114.22-206.07,142.31-302.97,29.49-101.28,36.05-211.75,18.46-311.06-12.61-71.2-36.93-134.62-71.51-187.48h-2.61Z"/>
      <path class="cls-30" d="M853.52,0c88.48,127.92,112.72,324.63,58.87,512.48-26.95,94.52-70.06,190.51-135.66,302.09-51.66,87.87-107.22,166.96-149.85,226.04l-5.1,7.05c-49.94,69.05-101.59,140.46-144.07,216.17-53.04,94.54-80.74,178.51-87.17,264.25-8.34,107.37,19.08,223.2,81.5,344.29,35.87,69.58,81.22,138.44,134.8,204.65,55.78,68.94,116.37,132.75,174.96,194.45,39.64,41.75,80.03,84.3,118.94,128.52h3.3c-39.57-45.09-80.69-88.4-121.05-130.9-58.56-61.67-119.11-125.44-174.83-194.31-53.45-66.07-98.7-134.75-134.48-204.15-62.09-120.45-89.38-235.57-81.09-342.17,6.39-85.17,33.95-168.66,86.74-262.75,42.4-75.58,94-146.92,143.9-215.91l5.1-7.05c42.66-59.13,98.27-138.29,149.99-226.26,65.74-111.82,108.95-208.05,135.99-302.86,28.77-100.36,36.05-209.68,20.51-307.81-12.56-79.29-39.27-149.25-78.2-205.85h-3.09Z"/>
      <path class="cls-14" d="M807.68,0c93.72,127.94,118.81,329.74,62.99,527.61-26.17,93.36-66.07,186.51-129.38,302.04-37.93,69.22-80.68,139.24-138.61,227.03l-1.82,2.76c-46.65,70.5-94.9,143.39-134.51,220.37-48.45,94.16-73.38,177.44-78.47,262.08-6.35,105.78,20.92,220.7,81.06,341.55,34.65,69.62,78.01,138.93,128.9,206,51.73,68.19,107.4,131.72,161.23,193.15,34.71,39.61,68.48,78.16,100.93,117.41h3.18c-33.04-40.05-67.46-79.33-102.84-119.72-53.81-61.4-109.45-124.89-161.12-193.01-50.77-66.93-94.04-136.08-128.6-205.53-59.84-120.24-86.99-234.48-80.67-339.53,5.05-84.08,29.86-166.89,78.08-260.6,39.54-76.84,87.74-149.67,134.35-220.1l1.83-2.76c57.98-87.86,100.77-157.94,138.74-227.24,63.43-115.75,103.42-209.12,129.66-302.74,28.06-99.44,36.06-207.6,22.53-304.57-12.22-87.62-41.21-164.23-84.5-224.2h-2.94Z"/>
      <path class="cls-29" d="M762.16,0c97.31,126.8,123.67,337.72,66.78,542.74-31.89,115.78-82.53,222.21-123.09,301.99-35.54,69.91-74.83,140.24-127.38,228.02-40.6,67.59-86.63,144.19-123.5,223.04-43.98,94.04-66.15,176.63-69.76,259.91-4.51,103.91,22.61,217.9,80.62,338.81,33.42,69.65,74.8,139.41,122.99,207.35,47.49,66.94,98.08,129.72,147.02,190.44,29.3,36.36,57.91,71.87,85.53,107.71h3.06c-28.16-36.61-57.35-72.83-87.26-109.94-48.91-60.68-99.47-123.43-146.92-190.3-48.1-67.8-89.39-137.42-122.73-206.9-57.74-120.34-84.74-233.69-80.26-336.91,3.59-82.74,25.65-164.86,69.42-258.47,36.8-78.7,82.78-155.24,123.35-222.76,52.59-87.85,91.91-158.23,127.48-228.2,40.62-79.92,91.36-186.54,123.33-302.62,56.9-205.02,30.94-416-65.67-543.89h-3.03Z"/>
      <path class="cls-36" d="M717.51,0c2.1,2.7,4.22,5.47,6.41,8.36,95.16,125.99,120,341.69,63.29,549.51-29.75,109.98-73.72,210.11-116.8,301.94-33.16,70.68-68.98,141.31-116.14,229.01-41.84,77.46-79.04,147.71-110.66,222.94-39.49,93.97-58.89,175.87-61.05,257.73-2.74,103.41,23.49,213.33,80.19,336.07,32.18,69.66,71.57,139.88,117.09,208.69,43.02,65.05,88.36,126.46,132.22,185.85,24.9,33.72,49.27,66.74,72.91,99.89h2.92c-24.11-33.87-48.99-67.58-74.42-102.03-43.83-59.37-89.15-120.75-132.14-185.74-45.43-68.69-84.74-138.76-116.85-208.28-56.44-122.19-82.56-231.53-79.84-334.28,2.15-81.35,21.46-162.8,60.77-256.33,31.56-75.1,68.73-145.28,110.53-222.67,47.19-87.76,83.03-158.44,116.22-229.17,43.15-91.97,87.18-192.27,117-302.5,27.01-99,36.19-202.11,26.54-298.19-10.23-101.83-41.48-189.87-90.38-254.63-1.6-2.12-3.17-4.17-4.73-6.19h-3.06Z"/>
      <path class="cls-61" d="M674.88,0c6.04,8.08,12.47,17.17,19.7,27.85,87.09,128.54,106.6,337.43,50.9,545.15-28.84,108.64-70.41,208.71-110.51,301.9-30.41,70.68-63.75,143.77-104.9,230.01-33.55,69.95-68.75,144.77-97.82,222.85-35.46,95.24-51.61,174.05-52.35,255.54-.92,101.37,25.17,210.4,79.75,333.32,30.93,69.66,68.34,140.33,111.18,210.04,38.26,62.25,78.12,121.44,116.67,178.69,21.51,31.95,42.61,63.3,63.14,94.65h2.8c-20.95-32.04-42.49-64.05-64.47-96.69-38.53-57.22-78.38-116.39-116.6-178.59-42.77-69.59-80.11-140.13-110.98-209.66-54.36-122.41-80.34-230.89-79.42-331.66.74-81,16.81-159.4,52.11-254.2,29.02-77.95,64.18-152.69,97.71-222.58,41.17-86.29,74.52-159.41,104.95-230.13,40.15-93.31,81.77-193.51,110.68-302.39,26.29-98.05,36.15-200.07,28.53-295.04-8.07-100.45-35.7-188.03-79.9-253.28-6.62-9.77-12.57-18.23-18.17-25.8h-2.99Z"/>
      <path class="cls-27" d="M634.54,0c11.02,15.05,21.26,31.64,30.69,47.33,77.61,129.08,92.37,336.3,38.52,540.81-27.89,107.08-66.69,206.1-104.22,301.86-28.35,72.35-58.11,145.75-93.67,231.01-29.19,69.56-59.69,144.7-84.98,222.75-30.87,95.27-44.33,173.41-43.64,253.35.86,99.23,26.8,207.36,79.32,330.58,29.67,69.62,65.09,140.74,105.27,211.37,33.12,58.21,67.21,113.98,100.18,167.91,19.19,31.39,38.05,62.24,56.42,93.03h2.68c-18.73-31.43-37.97-62.91-57.56-94.96-32.96-53.92-67.04-109.66-100.13-167.83-40.12-70.53-75.48-141.53-105.11-211.04-52.31-122.73-78.15-230.36-79-329.04-.69-79.48,12.71-157.22,43.45-252.08,25.25-77.93,55.72-152.98,84.88-222.48,35.56-85.28,65.34-158.71,93.69-231.08,37.56-95.86,76.41-194.98,104.35-302.26,54.11-205.52,39.2-413.9-38.91-543.82-9.03-15.02-18.81-30.85-29.31-45.41h-2.93Z"/>
      <path class="cls-3" d="M596.8,0c4.09,6.07,8.13,12.25,12.1,18.57,9.14,14.54,17.63,30.45,26.99,48.23,68.16,129.51,78.18,335.07,26.14,536.47-23.93,93.69-55.54,182.56-86.1,268.5-3.97,11.16-7.92,22.26-11.83,33.32-30.62,86.56-57.59,162.45-82.43,232.02-21.5,59.76-49.14,139.07-72.14,222.66-17.68,64.22-37.62,150.8-34.93,251.15,2.6,96.96,28.4,204.2,78.88,327.82,28.38,69.51,61.81,141.08,99.37,212.71,27.44,52.34,55.36,102.91,82.36,151.81,18.02,32.64,35.74,64.74,52.99,96.74h2.59c-17.56-32.6-35.61-65.29-53.97-98.55-26.99-48.89-54.9-99.44-82.33-151.75-37.51-71.54-70.9-143.01-99.24-212.42-50.3-123.19-76-229.96-78.59-326.42-2.67-99.8,17.19-186,34.79-249.96,22.97-83.47,50.58-162.69,72.06-222.4,24.85-69.57,51.81-145.47,82.44-232.03,3.91-11.06,7.86-22.16,11.83-33.31,30.59-86.02,62.22-174.97,86.19-268.82,52.28-202.33,42.15-408.98-26.44-539.3-9.39-17.84-17.91-33.8-27.11-48.43-3.55-5.64-7.15-11.16-10.8-16.61h-2.82Z"/>
      <path class="cls-6" d="M562.3,0c7.2,12.04,14.22,24.38,21.01,37.19,7.28,13.74,13.88,28.35,20.87,43.82l2.37,5.25c58.76,129.83,64.03,333.73,13.76,532.14-20.13,80.42-45.17,157.74-69.38,232.51-7.38,22.8-15.02,46.38-22.25,69.28-27.79,87.91-51.58,167.14-71.19,233.03-24.83,82.66-43.68,153.38-59.31,222.56-14.55,64.39-30.67,150.87-26.23,248.94,4.34,95.85,29.27,199.14,78.44,325.08,27.06,69.31,58.51,141.33,93.47,214.05,20.99,43.66,42.13,86.27,62.57,127.48,18.2,36.69,36.09,72.75,53.46,108.68h2.49c-17.62-36.49-35.79-73.1-54.27-110.37-20.44-41.2-41.58-83.8-62.55-127.44-34.92-72.64-66.33-144.57-93.36-213.8-49.01-125.53-73.85-228.42-78.17-323.8-4.42-97.58,11.64-183.71,26.13-247.85,15.61-69.08,34.43-139.72,59.24-222.31,19.61-65.89,43.4-145.09,71.18-232.98,7.24-22.89,14.87-46.46,22.25-69.26,24.23-74.83,49.29-152.21,69.45-232.75,50.49-199.26,45.14-404.18-13.98-534.78l-2.37-5.24c-7.01-15.52-13.63-30.18-20.96-44.01-6.46-12.19-13.12-23.94-19.95-35.42h-2.69Z"/>
      <path class="cls-47" d="M531.26,0c9.2,18.01,18.05,36.49,26.45,55.79,5.26,12.09,10.02,24.76,15.06,38.17,1.46,3.88,2.93,7.8,4.43,11.75,50.17,131.95,50.68,329.26,1.37,527.82-16.47,67.18-35.84,132.59-54.58,195.84-10.82,36.53-21.04,71.03-30.76,105.92-25.48,91.42-45.42,173.11-59.95,234.05-18.16,75.3-33.36,148.07-46.47,222.45-12.09,68.66-23.63,151.67-17.52,246.74,5.99,93.14,30.77,195.56,78,322.33,25.66,68.89,55.12,141.35,87.56,215.38,13.35,30.46,26.73,60.59,39.66,89.73,20.11,45.3,39.83,89.75,58.84,134.03h2.4c-19.21-44.8-39.16-89.76-59.5-135.59-12.94-29.13-26.31-59.26-39.66-89.72-32.41-73.97-61.85-146.37-87.49-215.2-47.09-126.4-71.79-228.45-77.76-321.18-6.08-94.62,5.42-177.32,17.47-245.74,13.09-74.3,28.27-146.99,46.42-222.21,14.52-60.92,34.46-142.56,59.92-233.92,9.72-34.86,19.93-69.35,30.75-105.86,18.75-63.29,38.13-128.74,54.62-196,23.42-94.31,36.03-192.17,36.46-283.01.45-95.24-12.68-180.73-37.97-247.24-1.5-3.94-2.97-7.86-4.43-11.73-5.05-13.46-9.83-26.17-15.13-38.34-8.16-18.75-16.75-36.73-25.67-54.25h-2.53Z"/>
      <path class="cls-10" d="M503.66,0c10.06,24.05,19.57,48.6,28.46,74.37,3.69,10.69,7,21.77,10.51,33.5,1.7,5.68,3.43,11.44,5.23,17.27,40.58,131.29,36.46,327-11.01,523.52-12.86,53.22-27.14,105.69-40.96,156.44-13.66,50.19-26.57,97.6-38.09,145.3-22.41,92.73-37.81,174.34-48.71,235.07-12.43,68.15-23.11,138.81-33.63,222.35-8.7,69.1-16.55,152.19-8.82,244.51,7.64,91.31,31.56,189.88,77.56,319.58,24.4,68.82,51.11,139.7,81.66,216.71l11.04,27.82c24.68,62.16,48.81,122.98,71.65,183.56h2.33c-23.01-61.06-47.31-122.34-72.19-184.99l-11.04-27.81c-30.53-76.96-57.22-147.81-81.61-216.59-45.88-129.37-69.73-227.62-77.34-318.57-7.69-91.93.13-174.75,8.81-243.64,10.5-83.47,21.18-154.05,33.6-222.13,10.9-60.69,26.27-142.23,48.66-234.85,11.51-47.64,24.41-95.02,38.07-145.19,13.82-50.77,28.11-103.27,40.98-156.54,47.65-197.21,51.74-393.73,10.95-525.7-1.8-5.82-3.52-11.57-5.22-17.24-3.52-11.76-6.85-22.88-10.56-33.65-8.74-25.32-18.07-49.46-27.92-73.1h-2.38Z"/>
      <path class="cls-32" d="M479.41,0c10.32,31.68,19.05,61.71,27.13,92.94,2.46,9.52,4.65,19.29,6.96,29.63,1.61,7.2,3.25,14.54,5.03,21.99,31.28,130.78,22.53,324.89-23.4,519.22-9.29,39.31-19.2,78.48-28.78,116.35-16.22,64.12-31.54,124.69-43.98,185.36-19.23,93.79-30.13,175.45-37.46,236.1-8.66,69.97-14.58,139.45-20.79,222.24-5.5,73.31-9.33,153.41-.13,242.3,11.57,111.72,45.47,222.85,77.12,316.82,22.29,66.19,46.36,135.48,75.76,218.04,23.62,66.34,46.77,132.32,68.6,198.99h2.26c-21.96-67.12-45.26-133.53-69.03-200.3-29.39-82.54-53.46-151.81-75.74-217.98-31.57-93.77-65.4-204.64-76.93-315.95-9.17-88.56-5.35-168.43.14-241.54,6.21-82.73,12.12-152.15,20.77-222.05,7.33-60.58,18.21-142.13,37.41-235.78,12.42-60.58,27.73-121.11,43.94-185.18,9.58-37.89,19.49-77.07,28.79-116.42,46.07-194.93,54.82-389.75,23.4-521.14-1.78-7.44-3.42-14.76-5.02-21.94-2.32-10.37-4.51-20.17-6.99-29.76-8-30.92-16.63-60.65-26.8-91.96h-2.26Z"/>
      <path class="cls-54" d="M458.13,0c8.58,36.35,16.03,72.8,22.84,111.5,1.5,8.53,2.79,17.2,4.15,26.37,1.26,8.46,2.56,17.21,4.08,26.11,22.1,129.76,8.72,322.26-35.8,514.94-5.82,25.17-11.83,50.48-17.65,74.95-18.67,78.52-36.31,152.69-48.8,226.74-12.48,73.91-20.56,147.05-26.21,237.13-4.33,66.09-5.83,130.51-7.41,198.72l-.55,23.42c-1.65,69.38-2.48,150.86,8.57,240.08,13.09,105.72,44.59,213.43,76.67,314.07l18.71,58.64c17.9,56.1,34.81,109.09,51.15,160.72,21.25,67.17,39.73,128.73,55.94,186.61h2.21c-16.3-58.23-34.89-120.18-56.28-187.79-16.34-51.64-33.25-104.63-51.15-160.73l-18.71-58.64c-32.03-100.46-63.46-207.95-76.51-313.34-11.01-88.93-10.18-170.23-8.54-239.45l.55-23.43c1.58-68.16,3.08-132.54,7.4-198.54,5.65-89.94,13.71-162.94,26.16-236.71,12.47-73.92,30.1-148.03,48.75-226.48,5.82-24.48,11.84-49.79,17.66-74.97,44.64-193.18,58.04-386.3,35.85-516.58-1.51-8.86-2.81-17.59-4.06-26.03-1.37-9.2-2.67-17.9-4.18-26.48-6.76-38.46-14.16-74.7-22.67-110.83h-2.17Z"/>
      <path class="cls-52" d="M439.65,0c6.03,39.69,11.1,81.76,15.75,130.05.74,7.66,1.32,15.37,1.94,23.55.73,9.63,1.48,19.59,2.53,29.8,13.31,129.79-4.26,315.92-48.21,510.66-2.42,10.72-4.84,21.41-7.26,32.07-21.2,93.43-41.22,181.67-52.89,269.6-9.9,74.58-14.52,148.04-14.96,238.16-.42,55.58,1.31,109.28,3.15,166.12.59,18.43,1.2,37.03,1.73,55.91,2.18,77.56,5.14,154.12,17.25,237.85,14.89,102.95,45.83,210.24,76.23,311.31,23.16,76.98,44.68,151.23,63.96,220.69,16.68,60.11,31.54,117.91,44.75,174.23h2.16c-13.28-56.66-28.22-114.8-45-175.28-19.29-69.49-40.81-143.77-63.98-220.77-30.37-100.93-61.25-208.06-76.11-310.73-12.08-83.5-15.03-159.93-17.21-237.36-.53-18.89-1.13-37.5-1.73-55.93-1.83-56.8-3.57-110.45-3.15-165.95.44-89.94,5.04-163.23,14.92-237.64,11.65-87.74,31.65-175.9,52.83-269.24,2.42-10.66,4.84-21.35,7.26-32.07,44.04-195.16,61.64-381.78,48.29-512-1.04-10.15-1.8-20.08-2.52-29.69-.62-8.19-1.21-15.93-1.95-23.63-4.64-48.14-9.69-90.11-15.7-129.71h-2.1Z"/>
      <path class="cls-50" d="M423.65,0c3.49,46.83,5.11,94.28,6.2,148.6.14,6.9.17,13.93.21,21.1.05,10.68.1,21.71.51,33.1,4.57,127.51-17.53,312.08-60.63,506.39-21.71,99.28-44.17,201.94-53.85,301.65-7.31,75.23-8.45,149-3.7,239.19,2.5,49.76,6.79,97.56,11.32,148.16,2.15,23.97,4.37,48.75,6.39,73.76l.7,8.62c5.74,71.39,11.67,145.21,25.24,227,16.35,98.53,45.38,201.09,73.45,300.28l2.34,8.28c21.09,74.54,40.62,149.24,58.06,222.01,13.09,54.65,24.71,108.35,34.98,161.86h2.14c-10.32-53.81-22-107.81-35.16-162.77-17.45-72.83-37-147.58-58.1-222.17l-2.34-8.28c-28.04-99.08-57.03-201.53-73.35-299.84-13.54-81.62-19.47-155.35-25.2-226.65l-.69-8.62c-2.02-25.03-4.24-49.82-6.39-73.8-4.54-50.56-8.82-98.32-11.31-148-4.74-89.97-3.6-163.54,3.68-238.56,9.66-99.47,32.09-202.01,53.78-301.17,43.17-194.63,65.3-379.58,60.72-507.43-.41-11.32-.46-22.32-.5-32.96-.03-7.2-.07-14.25-.21-21.17-1.1-54.3-2.71-101.76-6.19-148.58h-2.08Z"/>
      <path class="cls-42" d="M409.81,0c.2,59.6-2.77,115.84-5.49,167.16-.33,6.21-.74,12.51-1.15,18.92-.75,11.63-1.53,23.65-1.9,36.13-3.69,122.98-29.63,301.3-73.05,502.12-19.69,92.32-41.23,199.37-47.55,301.62-4.69,75.85-2.36,149.94,7.57,240.22,4.97,46.23,11.52,90.45,18.45,137.26,4.06,27.44,8.26,55.82,12.1,84.56,1.55,11.63,3.1,23.42,4.67,35.38,8.21,62.69,16.71,127.5,29.95,198.02,15.51,82.63,38.69,168.98,61.1,252.5,4.77,17.76,9.54,35.53,14.24,53.3,19.54,73.75,37.09,148.89,52.16,223.34,10.03,49.54,18.8,99.16,26.4,149.48h2.1c-7.63-50.59-16.44-100.46-26.52-150.25-15.09-74.52-32.65-149.74-52.22-223.57-4.71-17.78-9.48-35.55-14.25-53.31-22.39-83.44-45.55-169.72-61.03-252.2-13.22-70.4-21.71-135.16-29.91-197.79-1.57-11.96-3.11-23.76-4.67-35.39-3.84-28.76-8.04-57.16-12.11-84.62-6.92-46.77-13.46-90.95-18.42-137.1-9.9-90.04-12.22-163.9-7.55-239.49,6.3-101.97,27.81-208.85,47.46-301.02,43.47-201.05,69.45-379.64,73.14-502.86.37-12.4,1.15-24.39,1.9-35.98.42-6.43.82-12.74,1.15-18.97,2.73-51.4,5.69-107.73,5.5-167.46h-2.07Z"/>
      <path class="cls-19" d="M398.03,0c-3.73,60.22-10.83,117.68-18.24,177.63l-1,8.1c-.69,5.55-1.43,11.16-2.18,16.86-1.65,12.55-3.36,25.52-4.65,39.03-14.21,149.82-55.59,355.88-85.48,497.84-18.82,90.57-38.44,197.24-41.24,301.61-2.05,76.47,3.76,150.88,18.83,241.24,7.25,44.04,15.93,86.02,25.12,130.46,6.12,29.6,12.45,60.21,18.26,91.26,4.28,22.86,8.42,46.02,12.81,70.55,9.16,51.25,18.64,104.26,30.49,160.63,13.73,65.35,31.44,133.69,48.56,199.78,8.76,33.8,17.81,68.75,26.34,103.26,18.13,73.41,33.7,149,46.27,224.66,7.51,45.21,13.86,90.63,19.1,137.11h2.09c-5.26-46.69-11.63-92.32-19.17-137.74-12.59-75.76-28.18-151.45-46.33-224.97-8.53-34.54-17.59-69.5-26.35-103.3-17.12-66.05-34.81-134.34-48.52-199.6-11.83-56.31-21.31-109.28-30.46-160.51-4.39-24.53-8.53-47.71-12.81-70.58-5.82-31.09-12.15-61.72-18.27-91.34-9.18-44.4-17.85-86.33-25.09-130.3-15.03-90.09-20.83-164.24-18.78-240.43,2.79-104.05,22.37-210.48,41.16-300.88,29.91-142.05,71.32-348.25,85.55-498.28,1.28-13.44,2.98-26.38,4.63-38.88.75-5.7,1.49-11.33,2.18-16.89l1-8.1c7.43-60.13,14.55-117.76,18.28-178.21h-2.08Z"/>
      <path class="cls-57" d="M387.96,0c-7.79,63.93-19.35,124.34-31.46,187.51l-3.22,16.81c-.94,4.9-1.91,9.85-2.89,14.84-2.65,13.45-5.39,27.37-7.7,41.88-16.33,102.78-42.56,228.09-70.33,360.75-9.13,43.61-18.56,88.69-27.6,132.8-24.83,122.76-35.6,215.77-34.93,301.59.61,77.08,9.89,151.79,30.11,242.25,9.45,42.65,20.72,85.07,31.61,126.09,8.23,30.98,16.74,63.01,24.59,95.53,9.3,38.54,18.22,78.74,27.66,121.29,7.7,34.7,15.66,70.59,24.3,107.67,10.73,46.03,22.48,91.87,34.93,140.4,13.39,52.19,27.23,106.16,39.53,159.88,16.78,73.27,30.36,149.31,40.37,225.98,5.52,42.24,9.7,83.86,12.82,124.74h2.08c-3.13-41.03-7.33-82.81-12.87-125.22-10.03-76.8-23.64-152.97-40.45-226.37-12.31-53.77-26.16-107.76-39.55-159.98-12.44-48.51-24.19-94.32-34.91-140.32-8.64-37.05-16.59-72.93-24.29-107.62-9.44-42.58-18.37-82.79-27.68-121.37-7.86-32.56-16.37-64.61-24.61-95.61-10.89-40.98-22.15-83.35-31.58-125.93-20.15-90.17-29.41-164.61-30.01-241.38-.67-85.51,10.08-178.26,34.85-300.73,9.03-44.1,18.47-89.18,27.59-132.78,27.78-132.71,54.01-258.06,70.36-360.94,2.3-14.44,5.03-28.32,7.67-41.74.99-5,1.96-9.96,2.9-14.86l3.22-16.81c12.16-63.43,23.77-124.08,31.58-188.35h-2.11Z"/>
      <path class="cls-4" d="M379.47,0c-12.34,69.74-29.08,134.9-46.65,203.24l-5.06,19.68c-1.07,4.17-2.16,8.38-3.26,12.61-3.75,14.44-7.63,29.37-11.09,44.94-10.71,48.24-23.2,101.33-36.43,157.55-24.16,102.69-51.54,219.09-73.94,331.71-23.22,118.08-32.32,213.9-28.62,301.57,3.28,77.67,16.04,152.7,41.38,243.26,11.63,41.83,25.11,83.32,38.14,123.44,10.33,31.81,21.01,64.7,30.89,98.07,18.74,63.26,36.36,132.03,55.01,204.83l5.62,21.91c6.09,23.73,12.52,48.23,18.74,71.93,19.24,73.31,39.14,149.11,55.27,225.59,15.45,73.25,27.06,149.72,34.49,227.3,3.62,37.82,6.11,75.28,7.67,112.37h2.07c-1.57-37.19-4.06-74.77-7.69-112.71-7.45-77.74-19.07-154.37-34.56-227.76-16.16-76.57-36.07-152.42-55.32-225.78-6.22-23.69-12.65-48.19-18.73-71.91l-5.62-21.91c-18.66-72.84-36.29-141.65-55.05-204.97-9.9-33.42-20.59-66.33-30.93-98.16-13.02-40.09-26.48-81.54-38.09-123.29-25.25-90.25-37.97-164.99-41.23-242.32-3.68-87.32,5.39-182.84,28.54-300.58,22.39-112.55,49.77-228.91,73.92-331.57,13.23-56.23,25.72-109.33,36.44-157.59,3.44-15.51,7.32-30.41,11.06-44.81,1.1-4.24,2.2-8.45,3.27-12.63l5.05-19.67c17.66-68.67,34.47-134.14,46.85-204.32h-2.14Z"/>
      <path class="cls-17" d="M372.39,0c-17.78,77.78-41.38,151.62-64.3,223.28l-8.99,28.09c-5.01,15.6-10.19,31.74-14.97,48.54l-4.38,15.41c-38.55,135.48-86.52,304.1-118.44,469.54-22.09,115.61-29.18,211.43-22.3,301.55,5.97,78.26,22.2,153.6,52.65,244.26,13.85,41.42,29.58,82.4,44.8,122.03,12.38,32.25,25.19,65.6,37.07,99.38,21.49,61.11,42.86,130.36,69.29,224.54,23.8,84.79,53.42,190.32,73.57,294.76,14.14,73.29,23.76,150.21,28.6,228.62,2.07,33.56,3.17,66.92,3.49,100h2.07c-.33-33.14-1.43-66.56-3.5-100.19-4.85-78.59-14.49-155.69-28.67-229.16-20.18-104.61-49.82-210.22-73.64-295.08-26.45-94.26-47.85-163.58-69.37-224.78-11.9-33.83-24.71-67.21-37.1-99.48-15.2-39.59-30.92-80.54-44.75-121.88-30.34-90.35-46.52-165.38-52.45-243.28-6.84-89.74.23-185.2,22.24-300.44,31.89-165.27,79.84-333.8,118.36-469.22l4.38-15.41c4.76-16.74,9.93-32.84,14.93-48.42l8.99-28.09c23.04-72.04,46.77-146.28,64.61-224.57h-2.19Z"/>
      <path class="cls-12" d="M366.63,0c-23.87,86.46-54.92,168.14-85.01,247.31l-7.2,18.95c-6.5,17.09-13.22,34.77-19.56,53.11-46.06,133.19-103.06,308.19-135.28,480.63-20.76,111.98-25.99,210.61-15.99,301.52,8.67,78.84,28.39,154.48,63.92,245.26,16.12,41.3,34.19,82.08,51.67,121.52,14.36,32.41,29.21,65.92,43.03,99.8,26.95,66.09,52.45,138.82,77.95,222.34,24.03,78.67,54.05,182.95,73.12,292,12.82,73.35,20.47,150.71,22.71,229.95.83,29.35.88,58.57.29,87.62h2.07c.59-29.07.54-58.3-.29-87.68-2.25-79.44-9.91-157.01-22.77-230.56-19.11-109.27-49.18-213.7-73.24-292.47-25.54-83.63-51.08-156.46-78.07-222.66-13.83-33.92-28.7-67.46-43.07-99.9-17.46-39.4-35.51-80.14-51.61-121.37-35.41-90.45-55.05-165.78-63.68-244.24-9.96-90.5-4.74-188.73,15.94-300.3,32.18-172.18,89.12-347.02,135.14-480.09,6.33-18.28,13.04-35.94,19.53-53.01l7.2-18.95c30.25-79.59,61.47-161.74,85.42-248.78h-2.23Z"/>
      <path class="cls-25" d="M362,0c-30.96,96.61-70.72,187.42-109.23,275.29l-1.53,3.5c-8.44,19.27-17.17,39.19-25.64,60.04-47.67,117.31-114.86,294.32-147.74,476.3-19.8,110.21-22.96,208.84-9.67,301.5,11.39,79.41,34.58,155.35,75.2,246.24,18.48,41.42,38.98,82.24,58.81,121.71,16.25,32.35,33.06,65.8,48.71,99.51,31.49,67.79,60.63,141.86,86.62,220.14,35.07,106.39,58.84,201,72.67,289.24,11.59,73.9,17.09,149.56,16.83,231.28-.14,25.23-.86,50.3-2.08,75.25h2.07c1.22-24.92,1.93-49.96,2.07-75.16.27-81.95-5.25-157.82-16.88-231.95-13.87-88.46-37.69-183.27-72.83-289.87-26.03-78.42-55.22-152.62-86.77-220.53-15.68-33.75-32.49-67.23-48.76-99.6-19.81-39.44-40.3-80.23-58.75-121.58-40.47-90.56-63.57-166.19-74.91-245.21-13.23-92.22-10.07-190.4,9.65-300.17,32.82-181.63,99.92-358.4,147.53-475.56,8.46-20.81,17.18-40.71,25.61-59.96l1.53-3.5C293.24,188.57,333.23,97.26,364.3,0h-2.3Z"/>
      <path class="cls-55" d="M358.49,0c-.56,1.55-1.11,3.09-1.67,4.64-36.7,100.33-82.94,195.75-131.08,292.8-9.55,19.36-19.69,40.01-29.41,60.86-84.9,182.15-135.81,332.12-160.2,471.96-18.84,108.36-19.93,206.98-3.35,301.48,14.26,80.25,40.93,156.5,86.47,247.22,20.94,41.75,44,82.81,66.3,122.52,18.03,32.1,36.66,65.28,54.06,98.61,36.58,70.1,68.64,143.43,95.28,217.96,35.1,98.54,59.4,194.93,72.22,286.47,10.15,73.89,13.83,152.15,10.94,232.61-.78,20.99-2.01,41.95-3.6,62.87h2.08c1.59-20.85,2.81-41.73,3.58-62.65,2.89-80.7-.8-159.21-10.98-233.35-12.86-91.82-37.23-188.47-72.42-287.26-26.7-74.69-58.82-148.17-95.47-218.4-17.41-33.37-36.07-66.58-54.1-98.7-22.29-39.68-45.33-80.71-66.23-122.39-45.38-90.4-71.94-166.32-86.13-246.19-16.5-94.01-15.4-192.15,3.35-300.03,24.33-139.51,75.15-289.19,159.92-471.05,9.7-20.83,19.84-41.45,29.37-60.8,48.18-97.13,94.47-192.64,131.22-293.13.74-2.02,1.46-4.04,2.19-6.06h-2.35Z"/>
      <path class="cls-9" d="M0,814v11.1c34.13-179.91,116.93-352.48,201.86-507.13C259.95,212.17,315.15,106.86,358.15,0h-2.41c-42.84,106.19-97.75,210.9-155.51,316.09C116.77,468.07,35.37,637.33,0,814Z"/>
      <path class="cls-31" d="M0,1158.78c31.49,138.13,101.51,250.93,169.3,360.1,19.67,31.68,40.01,64.43,59,97.19,96.76,166.86,155.88,334.91,175.73,499.49,11.46,95.06,10.07,190.6.62,284.43h2.1c9.43-93.94,10.8-189.63-.69-284.87-19.91-165.11-79.19-333.65-176.19-500.92-19.02-32.8-39.37-65.57-59.05-97.27C101.73,1405.65,30.31,1290.59,0,1148.98v9.79Z"/>
    </g>
  </g>
</svg>