<?xml version="1.0" encoding="UTF-8"?>
<svg id="Layer_2" data-name="Layer 2" xmlns="http://www.w3.org/2000/svg" viewBox="0 0 99.36 90">
  <defs>
    <style>
      .cls-1 {
        fill: #fff;
      }
    </style>
  </defs>
  <g id="Layer_1-2" data-name="Layer 1">
    <path class="cls-1" d="M99.31,84.99c.04-.24,0-.48-.04-.72l-2.52-9.44c-.26-.98-1.27-1.56-2.25-1.31s-1.56,1.27-1.31,2.25l1.38,5.14-15.76-9.09v-30.27c0-.17-.02-.33-.06-.48,0-.06-.06-.11-.07-.17l-.11-.28c-.04-.06-.07-.09-.11-.15-.06-.07-.11-.17-.18-.22-.04-.04-.09-.07-.15-.11-.07-.06-.15-.13-.22-.18l-26.42-15.02V6.27l3.77,3.77c.37.37.83.53,1.31.53s.94-.18,1.31-.53c.72-.72.72-1.88,0-2.6l-6.9-6.9c-.17-.17-.37-.31-.61-.41-.44-.18-.96-.18-1.4,0-.22.09-.42.22-.61.41l-6.9,6.9c-.72.72-.72,1.88,0,2.6.37.37.83.53,1.31.53s.94-.18,1.31-.53l3.77-3.77v18.67l-26.42,15.02s-.07.07-.13.09c-.04.04-.09.06-.13.09s-.09.06-.13.09c-.07.07-.11.15-.18.22-.04.06-.09.09-.11.15-.04.07-.07.17-.11.26-.02.06-.06.11-.07.17,0,.06,0,.13-.02.18,0,.06,0,.11-.02.17,0,.06-.02.09-.02.15v30.27l-15.76,9.09,1.38-5.14c.26-.98-.31-1.99-1.31-2.25s-1.99.31-2.25,1.31L.06,84.26c-.06.24-.07.48-.04.72s.11.46.22.66c.11.18.26.35.41.48.04.04.09.07.13.09.17.13.37.22.57.28l9.44,2.52c.17.04.31.06.48.06.81,0,1.56-.53,1.79-1.36.26-.98-.31-1.99-1.31-2.25l-5.14-1.38,15.96-9.22,26.2,14.89s.18.09.28.13c.06.02.11.06.17.07.15.04.31.06.48.06s.31-.02.48-.06c.06,0,.11-.04.17-.07.09-.04.18-.06.28-.11l26.2-14.89,15.96,9.22-5.14,1.38c-.98.26-1.56,1.27-1.31,2.25.22.83.96,1.36,1.79,1.36.17,0,.31-.02.48-.06l9.44-2.52c.2-.06.39-.17.57-.28.04-.04.09-.06.13-.09.17-.13.29-.28.41-.48s.18-.42.22-.66h-.05ZM47.78,85.05l-23.58-13.4-.09-.09v-26.81l1.95,1.1.02.02,21.69,12.34v26.86l.02-.02ZM49.62,28.14l23.62,13.42-2.12,1.2-18.5,10.51-2.98,1.69-2.98-1.69-18.5-10.51-2.12-1.2,23.62-13.42h-.04ZM51.46,82.76v-24.58l21.69-12.34.02-.02,1.95-1.1v26.81l-.09.09-23.58,13.4v-2.28l.02.02Z"/>
  </g>
</svg>