<?xml version="1.0" encoding="UTF-8"?>
<svg id="Layer_2" data-name="Layer 2" xmlns="http://www.w3.org/2000/svg" viewBox="0 0 86.25 90">
  <defs>
    <style>
      .cls-1 {
        fill: #fff;
      }
    </style>
  </defs>
  <g id="Layer_1-2" data-name="Layer 1">
    <path class="cls-1" d="M70.95,50.3c-3.15-1.83-7.07-1.74-10.13.24l-3.52-2.03.06-.45c.74-.22,1.45-.52,2.14-.88l2.11,1.6h0c.5.37,1.2.33,1.64-.11l2.72-2.72h0c.44-.44.49-1.14.11-1.64l-1.6-2.11c.36-.68.66-1.4.88-2.14l2.62-.36h0c.62-.09,1.08-.62,1.08-1.24v-3.84c0-.62-.46-1.16-1.08-1.24l-2.62-.36c-.22-.74-.52-1.45-.88-2.14l1.6-2.11c.38-.5.33-1.2-.11-1.64l-2.72-2.71c-.44-.44-1.14-.49-1.64-.11l-2.11,1.6h0c-.68-.36-1.4-.66-2.14-.89l-.36-2.63c-.08-.62-.61-1.08-1.24-1.08h-3.85c-.62,0-1.15.46-1.23,1.08l-.36,2.62h0c-.74.22-1.45.52-2.14.88l-2.1-1.59c-.5-.38-1.2-.33-1.64.11l-2.72,2.72c-.44.44-.49,1.14-.11,1.64l1.6,2.11c-.36.68-.66,1.4-.88,2.14l-1.28.18c-.42-.34-.87-.65-1.34-.92-3.12-1.81-6.98-1.74-10.03.18-.37.23-.59.64-.58,1.08,0,.44.24.84.62,1.06l6.48,3.74v1.67l-1.25,2.18-1.45.83-6.48-3.75c-.38-.22-.85-.22-1.23-.01-.39.22-.63.61-.65,1.05-.14,3.62,1.75,7.01,4.9,8.81s7.03,1.69,10.08-.28l16.28,9.4c-.17,3.51,1.56,6.84,4.54,8.71,2.98,1.87,6.73,1.98,9.82.3,3.08-1.68,5.02-4.9,5.06-8.42.04-3.51-1.81-6.78-4.86-8.53h0ZM43.48,35.38h0c.51-.07.93-.46,1.05-.96.24-1.05.65-2.05,1.23-2.96.28-.44.25-1.01-.06-1.42l-1.44-1.9,1.18-1.18,1.9,1.44c.41.32.98.34,1.42.06.91-.57,1.91-.98,2.96-1.22.51-.11.89-.53.96-1.05l.33-2.36h1.67l.33,2.36h0c.07.51.45.93.96,1.05,1.05.24,2.05.65,2.96,1.23.44.28,1.01.25,1.42-.06l1.9-1.45,1.18,1.18-1.44,1.9h0c-.31.41-.34.98-.06,1.42.57.91.98,1.92,1.22,2.97.11.51.53.89,1.05.96l2.36.33v1.67l-2.36.33h0c-.51.07-.93.46-1.05.97-.24,1.05-.65,2.05-1.23,2.96-.28.44-.25,1.01.06,1.42l1.44,1.9-1.18,1.18-1.9-1.44c-.41-.32-.98-.34-1.42-.06-.91.57-1.91.99-2.96,1.23-.51.11-.89.53-.96,1.05l-.04.26-10.42-6.01h0c.1-2.01-.43-4.01-1.52-5.71l.44-.06ZM72.34,62.32c-1.73,2.99-5.33,4.34-8.59,3.22-3.27-1.12-5.28-4.39-4.81-7.81.07-.51-.18-1-.62-1.25l-17.66-10.2c-.44-.25-.99-.22-1.39.1-1.89,1.47-4.38,1.9-6.66,1.16-2.28-.74-4.04-2.56-4.7-4.86l4.95,2.86c.39.22.86.22,1.25,0l2.36-1.37c.19-.11.35-.27.46-.46l1.59-2.75c.11-.19.17-.41.17-.63v-2.73c0-.45-.24-.86-.62-1.09l-4.95-2.86h0c2.32-.58,4.78.04,6.56,1.64,1.78,1.6,2.65,3.98,2.32,6.35-.07.51.17,1,.62,1.25l12.7,7.33h0l4.96,2.87h0c.44.25.99.22,1.39-.1,2.72-2.11,6.57-2,9.17.26s3.23,6.06,1.51,9.04h0ZM70.67,55.35l-3.96-2.29h0c-.39-.22-.87-.22-1.25,0l-3.96,2.28c-.39.22-.62.64-.62,1.08v4.57c0,.44.24.86.62,1.08l3.96,2.29c.39.22.87.22,1.25,0l3.96-2.29c.39-.22.62-.64.62-1.08v-4.57c0-.44-.24-.86-.62-1.08ZM68.8,60.28l-2.71,1.56-2.71-1.56v-3.13l2.71-1.56,2.7,1.56v3.13ZM53.84,43.46h0c2.8,0,5.32-1.69,6.39-4.28,1.07-2.58.48-5.56-1.5-7.54-1.98-1.98-4.96-2.57-7.54-1.5s-4.27,3.59-4.27,6.39c0,3.82,3.1,6.92,6.92,6.92h0ZM53.84,32.12h0c1.79,0,3.4,1.07,4.09,2.72.69,1.65.31,3.56-.95,4.82-1.26,1.27-3.16,1.65-4.82.96s-2.73-2.29-2.73-4.08c0-2.44,1.97-4.42,4.41-4.42h0ZM54.11,66.87h0c0,.69-.56,1.24-1.25,1.24h-30.38c-.69,0-1.25-.56-1.25-1.25s.56-1.25,1.25-1.25h30.38c.33,0,.65.13.88.36.24.24.37.55.37.89h0ZM27.37,60.6c-.69,0-1.25-.56-1.25-1.25s.56-1.25,1.25-1.25h21.29c.69,0,1.25.56,1.25,1.25s-.56,1.25-1.25,1.25h-21.29ZM67.64,15.83H20.42V1.25c0-.33-.13-.65-.37-.88-.24-.23-.55-.36-.89-.36h-8.95C4.57,0,0,4.57,0,10.21v54.79c0,5.06,4.1,9.16,9.17,9.17h50.41v14.59c0,.33.13.65.37.88.23.23.55.36.88.36h16.25c5.06,0,9.16-4.1,9.17-9.17v-46.39c0-4.94-1.97-9.66-5.46-13.15-3.49-3.49-8.22-5.45-13.15-5.46h0ZM10.21,2.5h7.71v53.33h-8.75c-2.53,0-4.94,1.05-6.67,2.89V10.21c0-4.25,3.45-7.7,7.71-7.71h0ZM83.75,80.83h0c0,3.68-2.98,6.66-6.67,6.67h-15v-13.33h15c3.68,0,6.67,2.99,6.67,6.67h0ZM77.08,71.66H10.21c-4.05,0-7.4-3.13-7.69-7.17.27-3.48,3.16-6.16,6.65-6.17h9.99c.69,0,1.25-.56,1.25-1.25V18.34h47.22c4.27,0,8.37,1.7,11.39,4.72,3.02,3.02,4.72,7.11,4.72,11.39v40.11c-1.73-1.85-4.14-2.89-6.67-2.89h0Z"/>
  </g>
</svg>