<?xml version="1.0" encoding="UTF-8"?>
<svg id="Layer_2" data-name="Layer 2" xmlns="http://www.w3.org/2000/svg" viewBox="0 0 80.57 90">
  <defs>
    <style>
      .cls-1 {
        fill: #fff;
        fill-rule: evenodd;
      }
    </style>
  </defs>
  <g id="Layer_1-2" data-name="Layer 1">
    <g>
      <path class="cls-1" d="M4.22,29.55c-1.19,0-2.16.97-2.16,2.16s.97,2.16,2.16,2.16h72.11c1.21,0,2.17-.96,2.18-2.17,0-1.18-.97-2.15-2.16-2.15H4.22h0ZM76.33,35.93H4.22c-2.33,0-4.22-1.89-4.22-4.22s1.89-4.22,4.22-4.22h72.13c2.33,0,4.22,1.9,4.22,4.22-.03,2.37-1.89,4.22-4.24,4.22h0Z"/>
      <path class="cls-1" d="M40.28,90c-.28,0-.55-.12-.75-.32l-12.49-13.15c-.29-.3-.36-.74-.2-1.12.16-.38.54-.62.95-.62h6.76v-9.23L3.51,35.64c-.41-.4-.42-1.05-.03-1.46.4-.41,1.05-.42,1.46-.03l31.35,30.23c.2.2.31.46.31.74v10.7c0,.57-.46,1.03-1.03,1.03h-5.39l10.09,10.62,10.09-10.62h-5.39c-.57,0-1.03-.46-1.03-1.03v-10.7c0-.28.11-.55.31-.74l31.35-30.23c.41-.4,1.06-.38,1.46.03.39.41.38,1.06-.03,1.46l-31.04,29.92v9.23h6.76c.41,0,.79.25.95.62.16.38.08.82-.2,1.12l-12.49,13.15c-.2.2-.46.32-.75.32h0Z"/>
      <path class="cls-1" d="M50.97,43.15h-21.37c-.89,0-1.59.7-1.59,1.59s.7,1.59,1.59,1.59h21.35c.89,0,1.61-.71,1.61-1.59s-.7-1.59-1.59-1.59h0ZM50.95,48.38h-21.35c-2.01,0-3.65-1.64-3.65-3.65s1.64-3.65,3.65-3.65h21.37c2.01,0,3.65,1.64,3.65,3.65s-1.65,3.65-3.67,3.65h0Z"/>
      <path class="cls-1" d="M27.21,29.57c-.34,0-.68-.17-.87-.49-.89-1.42-1.55-2.93-1.97-4.49l-3.51-.51c-.51-.07-.88-.51-.88-1.02v-5.52c0-.51.38-.94.88-1.02l3.51-.51c.37-1.37.91-2.68,1.62-3.91l-2.12-2.86c-.31-.41-.26-.98.1-1.34l3.9-3.9c.36-.36.93-.4,1.34-.1l2.88,2.13c1.23-.71,2.54-1.25,3.91-1.62l.51-3.51c.07-.51.51-.88,1.02-.88h5.52c.51,0,.95.38,1.02.88l.51,3.51c1.37.37,2.68.91,3.91,1.62l2.84-2.12c.41-.31.98-.27,1.34.1l3.89,3.89c.36.36.4.93.1,1.34l-2.12,2.86c.71,1.23,1.25,2.54,1.62,3.91l3.51.51c.51.07.88.51.88,1.02v5.52c0,.51-.38.94-.88,1.02l-3.51.51c-.43,1.61-1.09,3.12-1.97,4.5-.31.48-.94.62-1.42.31-.48-.31-.62-.94-.31-1.42.88-1.37,1.5-2.9,1.87-4.54.09-.42.43-.74.86-.8l3.31-.49v-3.74l-3.31-.49c-.42-.06-.77-.38-.86-.8-.36-1.63-.99-3.16-1.89-4.56-.23-.36-.22-.83.04-1.17l2.01-2.7-2.62-2.62-2.68,2c-.34.26-.81.27-1.17.04-1.4-.89-2.93-1.53-4.56-1.89-.42-.09-.74-.43-.8-.86l-.49-3.31h-3.74l-.49,3.31c-.06.42-.38.76-.8.86-1.63.36-3.16.99-4.56,1.89-.36.23-.82.22-1.17-.04l-2.72-2.01-2.65,2.65,2.01,2.7c.25.34.27.81.04,1.17-.89,1.4-1.53,2.93-1.89,4.56-.09.42-.43.74-.86.8l-3.31.49v3.74l3.31.49c.42.06.76.38.86.8.35,1.59.98,3.12,1.87,4.54.3.48.15,1.12-.33,1.42-.17.11-.36.16-.54.16v-.02Z"/>
      <path class="cls-1" d="M44.59,29.55c-.37,0-.73-.2-.91-.55-.26-.51-.07-1.13.43-1.39,2.74-1.43,4.44-4.24,4.44-7.33,0-4.56-3.7-8.28-8.25-8.28s-8.25,3.71-8.25,8.28c0,3.09,1.7,5.89,4.44,7.33.51.26.7.89.43,1.39-.27.51-.89.7-1.39.43-3.42-1.79-5.54-5.3-5.54-9.15,0-5.7,4.63-10.34,10.32-10.34s10.32,4.64,10.32,10.34c0,3.85-2.12,7.36-5.54,9.15-.15.08-.32.12-.48.12h0Z"/>
    </g>
  </g>
</svg>