<?xml version="1.0" encoding="UTF-8"?>
<svg id="Layer_2" data-name="Layer 2" xmlns="http://www.w3.org/2000/svg" viewBox="0 0 90.3 90">
  <defs>
    <style>
      .cls-1 {
        fill: #fff;
        fill-rule: evenodd;
      }
    </style>
  </defs>
  <g id="Layer_1-2" data-name="Layer 1">
    <path class="cls-1" d="M32.28,62.94c-.02-.09-.03-.19-.03-.28,0-.78.56-1.45,1.33-1.59.09-.02.19-.02.29-.02h17.55c.68,0,1.29.43,1.52,1.08,1.52,4.29,5.45,7.45,10.15,7.83.83.07,1.48.77,1.48,1.61v16.9c-.04.86-.75,1.54-1.61,1.54h-.07c-15.31-.7-27.9-12.13-30.6-27.06h0ZM50.32,64.27h-14.46c2.98,11.98,13.1,21.1,25.48,22.38v-13.68c-4.94-.91-9.04-4.23-11.02-8.7h0ZM39.56,57.55c-.05,0-.1,0-.15,0-.83-.07-1.46-.77-1.46-1.6,0-.05,0-.1,0-.14,1.21-13.37,12.44-23.85,26.12-23.85,4.51,0,8.76,1.14,12.47,3.16.04.02.07.04.1.06.71.46.95,1.39.55,2.13-.02.03-.04.06-.06.1l-6.06,9.47c-.44.68-1.31.93-2.04.59-1.51-.7-3.2-1.1-4.97-1.1-5.85,0-10.71,4.26-11.65,9.84-.13.78-.8,1.35-1.59,1.34h-11.27ZM73.45,37.17c-2.87-1.28-6.04-2-9.38-2-11.38,0-20.85,8.28-22.68,19.15h8.14c1.71-6.44,7.57-11.19,14.54-11.19,1.75,0,3.44.3,5.01.85l4.37-6.82ZM66.93,70.84c0-.69.43-1.29,1.08-1.52,4.58-1.63,7.88-6,7.88-11.14,0-2.43-.74-4.7-2-6.58-.44-.65-.34-1.52.22-2.07l8.13-7.8s.07-.07.12-.1c.65-.52,1.59-.46,2.16.15.04.04.07.07.1.11h0c3.56,4.48,5.68,10.14,5.68,16.29,0,12.85-9.26,23.55-21.46,25.79-.1.02-.19.03-.29.03-.77,0-1.44-.56-1.58-1.32-.02-.1-.03-.19-.03-.29v-11.54ZM77.27,50.97c1.17,2.14,1.84,4.6,1.84,7.21,0,6.14-3.68,11.42-8.95,13.75v8.43c9.74-2.67,16.91-11.6,16.91-22.19,0-4.76-1.45-9.18-3.93-12.85l-5.87,5.64ZM67.43,21.86c-1.98-8.93-11.11-15.88-22.48-17.33-.88-.11-1.51-.92-1.39-1.81.11-.88.92-1.51,1.8-1.39,12.72,1.62,22.72,9.53,25.14,19.51.5-.64,1.42-.8,2.12-.36.75.48.98,1.48.5,2.23l-2.31,3.66c-.24.38-.64.65-1.09.73-.09.02-.18.02-.27.02-.37,0-.71-.12-1-.34l-3.47-2.75c-.7-.55-.82-1.57-.27-2.27.55-.7,1.57-.81,2.27-.26l.46.36ZM22.75,70.2c-9.98-2.41-17.89-12.42-19.51-25.14-.11-.88.52-1.69,1.4-1.8s1.69.52,1.8,1.4c1.45,11.37,8.4,20.5,17.33,22.48l-.36-.46c-.55-.7-.43-1.71.26-2.26.7-.55,1.71-.44,2.27.26l2.75,3.47c.23.28.35.63.35,1,0,.09,0,.18-.02.27-.08.46-.35.85-.73,1.09,0,0-3.66,2.31-3.66,2.31-.76.48-1.75.25-2.23-.5-.44-.7-.28-1.61.36-2.12h0ZM28.43,1.72l.73,3.66c1,.38,1.96.84,2.88,1.39l3.33-1.72c.57-.29,1.27-.22,1.77.19,2.35,1.96,4.27,4.37,5.66,7.09.3.58.22,1.28-.21,1.78,0,0-2.41,2.85-2.41,2.85.33,1.01.56,2.06.71,3.1l3.41,1.53c.6.27.97.86.96,1.51-.07,3.05-.76,6.06-2.02,8.84-.27.59-.86.96-1.52.94l-3.74-.1c-.59.89-1.26,1.72-1.99,2.5l.94,3.61c.16.63-.07,1.3-.58,1.69-2.43,1.85-5.22,3.19-8.18,3.94-.62.16-1.29-.08-1.68-.59l-2.25-2.99c-1.06.09-2.14.09-3.2,0l-2.25,2.99c-.4.51-1.06.75-1.68.59-2.97-.75-5.75-2.08-8.18-3.94-.52-.39-.75-1.06-.58-1.69l.94-3.61c-.73-.77-1.4-1.61-1.99-2.5l-3.74.1c-.65.02-1.25-.35-1.52-.94C.76,29.17.07,26.15,0,23.11c0-.65.36-1.24.96-1.51,0,0,3.41-1.53,3.41-1.52.15-1.06.38-2.1.71-3.11l-2.41-2.85c-.42-.5-.51-1.2-.21-1.78,1.39-2.72,3.31-5.13,5.66-7.09.5-.42,1.2-.49,1.77-.19l3.33,1.72c.92-.54,1.88-1.01,2.88-1.39l.73-3.66c.13-.64.62-1.14,1.26-1.27,2.99-.61,6.09-.61,9.08,0,.64.13,1.13.63,1.26,1.27h0ZM25.48,3.43c-1.89-.28-3.81-.28-5.7,0l-.69,3.49c-.12.58-.54,1.04-1.1,1.23-1.34.43-2.62,1.04-3.8,1.83-.49.32-1.12.36-1.64.09l-3.16-1.63c-1.39,1.3-2.6,2.8-3.55,4.45l2.3,2.72c.38.44.49,1.06.28,1.62-.5,1.31-.82,2.7-.94,4.1-.05.58-.41,1.1-.95,1.33l-3.25,1.46c.15,1.9.57,3.76,1.27,5.54l3.56-.1c.58-.02,1.14.28,1.43.79.71,1.22,1.6,2.32,2.63,3.29.42.4.6,1.01.45,1.58,0,0-.89,3.44-.89,3.44,1.58,1.07,3.31,1.9,5.13,2.46l2.14-2.84c.35-.47.93-.71,1.52-.62,1.39.19,2.81.19,4.21,0,.58-.08,1.16.16,1.52.62l2.14,2.84c1.83-.56,3.56-1.39,5.14-2.46l-.89-3.44c-.15-.57.02-1.17.45-1.58,1.02-.97,1.91-2.08,2.63-3.29.3-.5.85-.8,1.43-.79l3.56.1c.69-1.77,1.12-3.64,1.27-5.54l-3.25-1.46c-.54-.23-.9-.75-.95-1.33-.12-1.41-.44-2.79-.94-4.1-.21-.55-.1-1.17.28-1.62l2.3-2.72c-.96-1.65-2.16-3.15-3.56-4.45l-3.16,1.63c-.52.27-1.15.23-1.64-.09-1.18-.78-2.45-1.4-3.8-1.83-.56-.18-.98-.64-1.09-1.23l-.69-3.49ZM31.86,17.61c.85,1.51,1.32,3.25,1.32,5.1,0,5.78-4.69,10.46-10.46,10.46s-10.46-4.68-10.46-10.46,4.69-10.46,10.46-10.46c2.75,0,5.27,1.07,7.13,2.81l.82-.82c.63-.63,1.66-.63,2.28,0,.63.63.63,1.65,0,2.28l-1.1,1.1ZM27.57,17.34c-1.28-1.16-2.99-1.87-4.85-1.87-2.6,0-4.87,1.37-6.15,3.42.63-.56,1.6-.54,2.2.07l3.59,3.59,5.21-5.21ZM16.03,19.93c-.36.85-.56,1.79-.56,2.78,0,3.99,3.24,7.24,7.24,7.24s7.24-3.25,7.24-7.24c0-.95-.19-1.85-.52-2.68l-5.94,5.94c-.63.64-1.65.64-2.28,0l-4.72-4.72c-.36-.36-.52-.84-.46-1.31h0Z"/>
  </g>
</svg>