<?xml version="1.0" encoding="UTF-8"?>
<svg id="Layer_2" data-name="Layer 2" xmlns="http://www.w3.org/2000/svg" viewBox="0 0 71.88 90">
  <defs>
    <style>
      .cls-1 {
        fill: #fff;
      }
    </style>
  </defs>
  <g id="Layer_1-2" data-name="Layer 1">
    <g>
      <path class="cls-1" d="M.86,65.37h26.09c.12.15.23.29.34.42,5.63,6.81,15.42,8.59,23.05,4.29l4,4.83-.49.4c-.37.3-.41.84-.11,1.21l9.72,11.75c.94,1.14,2.3,1.73,3.68,1.73,1.07,0,2.14-.36,3.03-1.09,2.02-1.68,2.31-4.69.63-6.71l-9.72-11.75c-.15-.18-.35-.29-.58-.31-.23-.02-.45.05-.63.19l-.49.4-4-4.83c5.64-6.69,5.72-16.64.1-23.44-.21-.25-.44-.52-.71-.8V.86c0-.47-.38-.86-.86-.86H11.65c-.06,0-.12,0-.17.02-.02,0-.04.01-.06.02-.05.01-.1.03-.14.05-.03.01-.06.03-.09.05-.04.03-.09.06-.13.1-.01.01-.03.02-.04.03L.24,11.37c-.05.06-.09.12-.13.18,0,.01-.02.03-.03.05-.03.07-.06.13-.07.21H.01c0,.06-.01.11-.01.16v52.54c0,.47.38.86.86.86h0ZM69.46,83.29c1.07,1.29.89,3.22-.41,4.29-1.29,1.07-3.21.89-4.28-.41l-9.17-11.08,2.34-1.93,1.87-1.54s0,0,0,0l.48-.4,9.17,11.08h0ZM53.62,65.31c-.29.32-.3.8-.03,1.13l4.46,5.4-1.31,1.09-1.08.9-4.47-5.39c-.17-.21-.41-.31-.66-.31-.16,0-.31.04-.45.13-6.99,4.32-16.22,2.8-21.47-3.55-.16-.2-.34-.42-.54-.69-5.26-7.07-4.05-17.02,2.75-22.64,6.63-5.49,16.51-4.94,22.48,1.25.33.34.61.65.86.95,5.24,6.34,5.02,15.69-.53,21.75h0ZM53.05,40.04c-.09-.07-.18-.14-.27-.21-.1-.08-.19-.16-.29-.23-.13-.1-.26-.19-.39-.29-.09-.07-.19-.14-.28-.21-.14-.1-.29-.19-.43-.29-.09-.06-.17-.12-.26-.17-.2-.13-.41-.25-.61-.37-.05-.03-.1-.06-.16-.09-.22-.12-.44-.24-.66-.35-.09-.04-.19-.09-.28-.13-.15-.07-.31-.15-.46-.22-.1-.05-.21-.09-.32-.14-.14-.06-.29-.12-.43-.18-.11-.04-.23-.09-.34-.13-.14-.05-.28-.1-.42-.15-.12-.04-.24-.08-.35-.12-.14-.04-.28-.09-.42-.13-.12-.04-.24-.07-.36-.1-.14-.04-.28-.08-.42-.11-.12-.03-.25-.06-.37-.09-.14-.03-.28-.06-.43-.09-.12-.03-.25-.05-.37-.07-.14-.03-.28-.05-.43-.07-.12-.02-.25-.04-.37-.06-.15-.02-.29-.04-.43-.05-.12-.01-.25-.03-.37-.04-.15-.01-.3-.03-.44-.03-.12,0-.24-.02-.36-.02-.15,0-.31-.01-.46-.01-.12,0-.23,0-.35,0-.17,0-.34,0-.5,0-.1,0-.21,0-.31,0-.24,0-.47.02-.7.04-.06,0-.12,0-.19.01-.24.02-.48.04-.72.07-.1.01-.2.03-.3.04-.17.02-.34.05-.51.07-.11.02-.22.04-.34.06-.16.03-.31.06-.46.09-.12.03-.23.05-.35.08-.15.03-.3.07-.44.11-.12.03-.24.06-.35.1-.15.04-.29.08-.43.13-.12.04-.24.07-.35.12-.14.05-.28.1-.43.15-.12.04-.24.09-.35.13-.14.05-.28.11-.42.17-.12.05-.23.1-.34.15-.14.06-.28.12-.41.19-.11.05-.23.1-.34.16-.14.07-.27.14-.41.21-.11.06-.22.12-.33.18-.14.07-.27.16-.41.24-.1.06-.21.12-.31.19-.14.09-.28.18-.41.27-.1.06-.2.13-.3.19-.15.1-.3.21-.44.31-.08.06-.17.12-.25.18-.21.15-.41.31-.61.48-.02.02-.04.03-.06.05-.03.02-.05.04-.07.06-.2.17-.4.34-.59.51-.08.07-.15.15-.23.22-.13.13-.27.25-.4.38-.09.09-.17.17-.25.26-.12.12-.24.24-.35.37-.09.09-.16.19-.25.28-.11.12-.21.24-.32.37-.08.1-.16.2-.24.3-.1.12-.2.25-.29.37-.08.1-.15.21-.22.31-.09.13-.18.25-.27.38-.07.1-.14.21-.21.32-.08.13-.17.26-.25.39-.07.11-.13.22-.19.33-.08.13-.15.27-.23.4-.06.11-.12.22-.18.34-.07.13-.14.27-.21.41-.06.11-.11.22-.16.34-.06.14-.13.28-.19.42-.05.11-.1.23-.15.34-.06.14-.12.29-.17.43-.04.11-.09.23-.13.34-.05.15-.1.3-.15.45-.04.11-.07.23-.11.34-.05.15-.09.31-.13.46-.03.11-.06.22-.09.33-.04.16-.08.32-.12.49-.03.1-.05.21-.07.31-.04.18-.07.36-.1.54-.01.09-.04.18-.05.27-.04.23-.07.45-.1.68,0,.04-.01.09-.02.14-.03.28-.06.55-.08.83,0,.05,0,.11,0,.16-.01.22-.03.44-.03.66v.28c0,.18,0,.36,0,.55,0,.11,0,.21.01.32,0,.17.01.34.02.5,0,.12.02.23.03.34.01.16.03.32.04.48.01.12.03.24.04.35.02.16.04.31.06.47.02.12.04.24.06.36.03.15.06.31.09.46.02.12.05.24.08.36.03.15.07.3.1.46.03.12.06.24.09.36.04.15.08.3.13.45.04.12.07.24.11.36.05.15.1.3.15.44.04.12.09.24.13.36.06.15.11.29.17.44.05.12.09.24.15.35.06.15.13.29.19.43.05.12.1.23.16.35.07.14.14.28.22.43.06.11.12.23.18.34.08.14.16.28.24.42.06.11.13.22.19.33.01.02.02.04.04.06H1.72V12.83h9.93c.47,0,.86-.38.86-.86V1.72h40.54v38.33ZM10.79,2.98v8.13H2.89L10.79,2.98Z"/>
      <path class="cls-1" d="M9.62,15.25c-2.02,0-3.66,1.64-3.66,3.66v10.98c0,2.02,1.64,3.66,3.66,3.66h11.86c2.02,0,3.66-1.64,3.66-3.66v-10.98c0-2.02-1.64-3.66-3.66-3.66h-11.86ZM23.42,18.9v10.98c0,1.07-.87,1.94-1.94,1.94h-11.86c-1.07,0-1.94-.87-1.94-1.94v-10.98c0-1.07.87-1.94,1.94-1.94h11.86c1.07,0,1.94.87,1.94,1.94Z"/>
      <path class="cls-1" d="M33.29,33.54h11.86c2.02,0,3.66-1.64,3.66-3.66v-10.98c0-2.02-1.64-3.66-3.66-3.66h-11.86c-2.02,0-3.66,1.64-3.66,3.66v10.98c0,2.02,1.64,3.66,3.66,3.66ZM31.35,18.9c0-1.07.87-1.94,1.94-1.94h11.86c1.07,0,1.94.87,1.94,1.94v10.98c0,1.07-.87,1.94-1.94,1.94h-11.86c-1.07,0-1.94-.87-1.94-1.94v-10.98Z"/>
      <path class="cls-1" d="M20.11,19.84c-.18-.18-.41-.26-.63-.25-.28-.07-.6,0-.83.22l-3.23,3.23-3.2-3.2c-.34-.34-.88-.34-1.21,0-.34.34-.34.88,0,1.21l3.2,3.2-3.45,3.45c-.34.34-.34.88,0,1.21.17.17.39.25.61.25h.03c.07.02.14.03.22.03.22,0,.44-.09.61-.25l3.34-3.34,3.34,3.34c.17.17.39.25.61.25s.44-.09.61-.25c.34-.34.34-.88,0-1.21l-3.34-3.34,3.34-3.34c.34-.34.34-.88,0-1.21h0Z"/>
      <path class="cls-1" d="M37.05,28.38c.17.17.39.25.61.25s.44-.09.61-.25l6.75-6.75c.34-.34.34-.88,0-1.21-.34-.34-.88-.34-1.21,0l-6.14,6.14-3.01-3.01c-.34-.34-.88-.34-1.21,0-.34.34-.34.88,0,1.21l3.62,3.62h0Z"/>
      <path class="cls-1" d="M32.47,43.37c-5.93,4.91-6.76,13.73-1.86,19.66.66.79,1.41,1.52,2.24,2.16,2.51,1.93,5.51,2.9,8.52,2.9s5.99-.96,8.49-2.89c.15-.1.29-.22.41-.32.13-.11.26-.23.39-.35.13-.11.26-.22.38-.34.13-.12.25-.25.37-.38.11-.12.23-.23.34-.35.13-.15.25-.3.38-.45.09-.11.19-.22.28-.33.16-.21.31-.43.47-.65.04-.06.09-.12.13-.18.68-1.02,1.21-2.14,1.6-3.32.04-.12.09-.24.12-.36.81-2.66.81-5.46,0-8.11-.53-1.76-1.41-3.39-2.6-4.84-4.91-5.93-13.72-6.76-19.66-1.86h.01ZM53.32,51.44c.47,2.06.39,4.2-.24,6.24-.69,2.3-2.04,4.33-3.92,5.89-.1.09-.21.17-.34.27-4.4,3.39-10.53,3.39-14.92,0-.73-.56-1.39-1.2-1.96-1.9-4.3-5.2-3.57-12.93,1.63-17.24,2.28-1.89,5.05-2.8,7.79-2.8,3.53,0,7.03,1.51,9.44,4.43,1.05,1.27,1.82,2.7,2.28,4.24.09.29.17.58.23.88h0Z"/>
      <path class="cls-1" d="M18.77,42.1H6.82c-.47,0-.86.38-.86.86s.38.86.86.86h11.95c.47,0,.86-.38.86-.86s-.38-.86-.86-.86Z"/>
      <path class="cls-1" d="M18.77,48.82H6.82c-.47,0-.86.38-.86.86s.38.86.86.86h11.95c.47,0,.86-.38.86-.86s-.38-.86-.86-.86Z"/>
      <path class="cls-1" d="M18.77,55.55H6.82c-.47,0-.86.38-.86.86s.38.86.86.86h11.95c.47,0,.86-.38.86-.86s-.38-.86-.86-.86Z"/>
    </g>
  </g>
</svg>