<?xml version="1.0" encoding="UTF-8"?>
<svg id="Layer_2" data-name="Layer 2" xmlns="http://www.w3.org/2000/svg" viewBox="0 0 101.32 90">
  <defs>
    <style>
      .cls-1 {
        fill: #fff;
      }
    </style>
  </defs>
  <g id="Layer_1-2" data-name="Layer 1">
    <g>
      <path class="cls-1" d="M91.4,0h-3.97c-.74,0-1.37.63-1.37,1.37v15.69H15.26V1.37c0-.74-.63-1.37-1.37-1.37h-3.99C4.44,0,0,4.44,0,9.9v70.19c0,4.69,4.16,9.92,10.12,9.92h81.06c5.97,0,10.14-5.23,10.14-9.92V9.9c0-5.46-4.45-9.9-9.92-9.9ZM2.75,73.09V9.9c0-3.95,3.2-7.16,7.14-7.16h2.61v67.43h-2.61c-2.17,0-4.24.71-5.99,2.04l-1.16.88ZM98.34,80.1c0,3.95-3.21,7.16-7.16,7.16H10.12c-3.95,0-7.16-3.21-7.16-7.16l.02-1.76c.78-3.18,3.63-5.4,6.92-5.4h3.97c.75,0,1.37-.61,1.37-1.37V19.81h70.8v51.74c0,.75.61,1.37,1.37,1.37h3.99c3.25,0,6.1,2.2,6.92,5.35l.02.18v1.65ZM98.56,73.11l-1.16-.88c-1.72-1.32-3.85-2.04-6.01-2.04h-2.61V2.76h2.61c3.95,0,7.16,3.21,7.16,7.16v63.19Z"/>
      <path class="cls-1" d="M73.52,23.95H27.8c-2.81,0-5.1,2.29-5.1,5.1v31.9c0,2.81,2.29,5.1,5.1,5.1h4.33c.74,0,1.35-.6,1.35-1.35s-.6-1.35-1.35-1.35h-4.33c-1.32,0-2.39-1.07-2.39-2.39v-22.22h5.45c.74,0,1.35-.6,1.35-1.35s-.6-1.35-1.35-1.35h-5.45v-6.99c0-1.32,1.07-2.39,2.39-2.39h23.92v9.38h-11.65c-.74,0-1.35.6-1.35,1.35s.62,1.35,1.35,1.35h13.02c.74,0,1.35-.6,1.35-1.35v-10.74h19.08c1.32,0,2.39,1.07,2.39,2.39v16.22h-22.83c-.74,0-1.35.6-1.35,1.35s.62,1.35,1.35,1.35h22.83v12.98c0,1.32-1.07,2.39-2.39,2.39h-19.08v-4.58c0-.74-.6-1.35-1.35-1.35s-1.35.6-1.35,1.35v4.58h-6.07l-3.06-6.39c-.16-.33-.43-.57-.77-.69-.34-.12-.7-.1-1.03.06-.33.16-.57.43-.69.77-.12.34-.1.7.06,1.03l3.42,7.17c.22.46.7.76,1.22.76h28.72c2.81,0,5.1-2.29,5.1-5.1v-31.88c-.02-2.81-2.31-5.1-5.12-5.1Z"/>
    </g>
  </g>
</svg>