<?xml version="1.0" encoding="UTF-8"?>
<svg id="Layer_2" data-name="Layer 2" xmlns="http://www.w3.org/2000/svg" viewBox="0 0 90 90">
  <defs>
    <style>
      .cls-1 {
        fill: #fff;
        fill-rule: evenodd;
      }
    </style>
  </defs>
  <g id="Layer_1-2" data-name="Layer 1">
    <path class="cls-1" d="M6.16,38.56h39.11c1.7,0,3.24.69,4.36,1.81,1.12,1.12,1.81,2.66,1.81,4.36v39.11c0,1.69-.69,3.24-1.81,4.36-1.12,1.12-2.66,1.81-4.36,1.81H6.16c-1.69,0-3.24-.69-4.36-1.81-1.12-1.12-1.81-2.66-1.81-4.36v-39.11c0-1.69.69-3.24,1.81-4.36,1.12-1.12,2.66-1.81,4.36-1.81ZM35.34,41.46v18.25c0,.8-.65,1.45-1.45,1.45-.45,0-.86-.21-1.12-.53l-7.04-7.48-7.11,7.55c-.55.58-1.46.61-2.05.06-.3-.29-.46-.67-.46-1.06h0v-18.25H6.16c-.89,0-1.71.37-2.3.96-.59.59-.96,1.4-.96,2.3v39.11c0,.89.37,1.71.96,2.3.59.59,1.4.96,2.3.96h39.11c.89,0,1.71-.37,2.3-.96.59-.59.96-1.4.96-2.3v-39.11c0-.89-.37-1.71-.97-2.3-.59-.59-1.4-.96-2.3-.96h-9.94ZM19.01,41.46v14.6l5.66-6.01s.04-.04.06-.06c.58-.55,1.5-.52,2.05.06l5.66,6.01v-14.6h-13.42ZM7.01,71.86c-.8,0-1.45.65-1.45,1.45v9.67c0,.8.65,1.45,1.45,1.45h20.35c.8,0,1.45-.65,1.45-1.45v-9.67c0-.8-.65-1.45-1.45-1.45H7.01ZM25.91,74.77H8.46v6.77h17.45v-6.77ZM7.01,69.98h11.34c.8,0,1.45-.65,1.45-1.45s-.65-1.45-1.45-1.45H7.01c-.8,0-1.45.65-1.45,1.45s.65,1.45,1.45,1.45ZM51.97,0c1.36,0,2.59.55,3.49,1.45.89.89,1.45,2.13,1.45,3.49s-.55,2.59-1.45,3.49c-.89.89-2.13,1.45-3.49,1.45s-2.59-.55-3.49-1.45c-.56-.56-.99-1.26-1.23-2.04h-17.92s-11.82,29.51-11.82,29.51c-.3.74-1.14,1.1-1.88.8s-1.1-1.14-.8-1.88L26.98,4.5c.19-.59.73-1.02,1.39-1.02h18.9c.24-.78.67-1.48,1.23-2.04C49.38.55,50.61,0,51.97,0h0ZM53.41,3.5c-.37-.37-.87-.6-1.44-.6s-1.07.23-1.44.6c-.37.37-.6.87-.6,1.44s.23,1.07.6,1.44c.37.37.87.6,1.44.6s1.07-.23,1.44-.6c.37-.37.6-.87.6-1.44,0-.56-.23-1.07-.6-1.44ZM77.59,27.26c-1.36,0-2.59.55-3.49,1.45-.56.56-.99,1.26-1.23,2.04h-10.8c-.42,0-.79.17-1.05.45l-7.7,6.8c-.6.53-.65,1.44-.13,2.04.53.6,1.44.65,2.04.13l7.38-6.51h10.26c.24.78.67,1.48,1.23,2.04.89.89,2.13,1.45,3.49,1.45s2.59-.55,3.49-1.45c.89-.89,1.45-2.13,1.45-3.49s-.55-2.59-1.45-3.49c-.89-.9-2.12-1.45-3.49-1.45h0ZM79.03,30.76c.37.37.6.87.6,1.44s-.23,1.07-.6,1.44c-.37.37-.87.6-1.44.6s-1.07-.23-1.44-.6c-.37-.37-.6-.87-.6-1.44s.23-1.07.6-1.44c.37-.37.87-.6,1.44-.6s1.07.23,1.44.6ZM63.13,7.25c-.8,0-1.45-.65-1.45-1.45s.65-1.45,1.45-1.45h20.56c.8,0,1.45.65,1.45,1.45s-.65,1.45-1.45,1.45h-20.56ZM63.19,90c-.8,0-1.45-.65-1.45-1.45s.65-1.45,1.45-1.45h20.56c.8,0,1.45.65,1.45,1.45s-.65,1.45-1.45,1.45h-20.56ZM63.19,83.15c-.8,0-1.45-.65-1.45-1.45s.65-1.45,1.45-1.45h20.56c.8,0,1.45.65,1.45,1.45s-.65,1.45-1.45,1.45h-20.56ZM71.55,73.71h-15.72c-.8,0-1.45-.65-1.45-1.45s.65-1.45,1.45-1.45h15.72c.24-.78.67-1.48,1.23-2.04.89-.89,2.13-1.45,3.49-1.45s2.59.55,3.49,1.45,1.45,2.13,1.45,3.49-.55,2.59-1.45,3.49c-.89.89-2.13,1.45-3.49,1.45s-2.59-.55-3.49-1.45c-.56-.56-.99-1.25-1.23-2.03h0ZM77.71,70.82c-.37-.37-.87-.6-1.44-.6s-1.07.23-1.44.6c-.37.37-.6.87-.6,1.44s.23,1.07.6,1.44c.37.37.87.6,1.44.6s1.07-.23,1.44-.6c.37-.37.6-.87.6-1.44,0-.56-.23-1.07-.6-1.44ZM67.99,49.69c-.8,0-1.45-.65-1.45-1.45s.65-1.45,1.45-1.45h20.56c.8,0,1.45.65,1.45,1.45s-.65,1.45-1.45,1.45h-20.56ZM67.99,42.83c-.8,0-1.45-.65-1.45-1.45s.65-1.45,1.45-1.45h20.56c.8,0,1.45.65,1.45,1.45s-.65,1.45-1.45,1.45h-20.56ZM63.13,14.11c-.8,0-1.45-.65-1.45-1.45s.65-1.45,1.45-1.45h20.56c.8,0,1.45.65,1.45,1.45s-.65,1.45-1.45,1.45h-20.56Z"/>
  </g>
</svg>