<?xml version="1.0" encoding="UTF-8"?>
<svg id="Layer_2" data-name="Layer 2" xmlns="http://www.w3.org/2000/svg" viewBox="0 0 89.49 90">
  <defs>
    <style>
      .cls-1 {
        fill: #fff;
      }
    </style>
  </defs>
  <g id="Layer_1-2" data-name="Layer 1">
    <path class="cls-1" d="M88.4,14L45.22.08c-.32-.1-.66-.1-.98,0L1.09,14C.43,14.22,0,14.84,0,15.53v58.94c0,.69.43,1.31,1.09,1.53l43.17,13.93c.16.05.32.08.49.08.17,0,.33-.03.49-.08l43.16-13.93c.66-.22,1.1-.84,1.09-1.53V15.53c0-.69-.43-1.31-1.09-1.53ZM44.74,3.29l37.95,12.24-37.95,12.24L6.79,15.53,44.74,3.29ZM86.28,72.26l-40.13-12.96v-28.62l40.13-12.96v54.53ZM3.21,17.74l39.73,12.83v28.88L3.21,72.26V17.74ZM42.94,62.81v23.31l-36.15-11.66,36.15-11.66ZM46.15,86.26v-23.57l36.55,11.79-36.55,11.79Z"/>
  </g>
</svg>