<?xml version="1.0" encoding="UTF-8"?>
<svg id="Layer_2" data-name="Layer 2" xmlns="http://www.w3.org/2000/svg" viewBox="0 0 98.57 90">
  <defs>
    <style>
      .cls-1 {
        fill: #fff;
        fill-rule: evenodd;
      }
    </style>
  </defs>
  <g id="Layer_1-2" data-name="Layer 1">
    <path class="cls-1" d="M36.29,0c-.94,0-1.7.77-1.69,1.71v19.14c0,.93.76,1.69,1.69,1.69h25.69c.93,0,1.69-.76,1.69-1.69V1.71C63.68.77,62.93,0,61.99,0h-25.69ZM37.99,3.4h22.29v15.74h-22.29V3.4ZM23.23,4.32c-.45-.02-.89.15-1.22.46-.68.64-.72,1.72-.08,2.4,0,0,0,0,0,0l2.22,2.38h-15.96c-.94,0-1.7.75-1.71,1.69,0,0,0,0,0,.01,0,.94.76,1.7,1.7,1.7,0,0,0,0,0,0h15.97l-2.23,2.4c-.64.68-.61,1.76.07,2.4,0,0,0,0,0,0,.68.64,1.76.61,2.4-.08,0,0,0,0,0,0l4.89-5.26c.61-.65.61-1.67,0-2.32l-4.89-5.24c-.31-.33-.73-.53-1.19-.54ZM45.56,9.57c-.94,0-1.7.75-1.71,1.69,0,0,0,0,0,.01,0,.94.76,1.7,1.7,1.7,0,0,0,0,0,0h7.15c.93,0,1.69-.76,1.69-1.7,0-.94-.75-1.7-1.69-1.71h-7.15ZM71.01,9.57c-.94,0-1.7.75-1.71,1.69,0,0,0,0,0,.01,0,.94.76,1.7,1.7,1.7,0,0,0,0,0,0h9.05c8.41,0,15.12,6.73,15.12,15.17s-6.71,15.17-15.12,15.17h-5.83l2.24-2.4c.64-.68.61-1.76-.08-2.4,0,0,0,0,0,0-.69-.64-1.76-.6-2.4.09l-4.91,5.26c-.61.65-.61,1.67,0,2.32l4.91,5.24c.64.68,1.71.72,2.4.09.69-.64.73-1.71.09-2.4,0,0,0,0,0,0l-2.23-2.38h5.82c10.24,0,18.52-8.32,18.52-18.57s-8.28-18.57-18.52-18.57h-9.05ZM36.29,33.72c-.94,0-1.7.77-1.69,1.71v19.15c0,.94.75,1.7,1.69,1.71h25.69c.94,0,1.7-.77,1.69-1.71v-19.15c0-.94-.75-1.7-1.69-1.71h-25.69ZM37.99,37.12h22.29v15.76h-22.29v-15.76ZM18.53,43.31C8.29,43.31,0,51.61,0,61.86s8.29,18.57,18.53,18.57h5.63l-2.23,2.4c-.64.68-.61,1.75.07,2.4.69.64,1.76.6,2.4-.08,0,0,0,0,0,0l4.89-5.24c.61-.65.61-1.67,0-2.32l-4.89-5.25c-.31-.33-.74-.53-1.19-.54-.45-.01-.89.15-1.22.46-.68.64-.71,1.71-.07,2.4l2.23,2.4h-5.64c-8.41,0-15.13-6.74-15.13-15.17s6.72-15.15,15.13-15.15h9.04c.94,0,1.7-.75,1.71-1.69,0,0,0,0,0-.01,0-.94-.77-1.7-1.71-1.69h-9.04ZM45.56,43.31c-.94,0-1.7.75-1.71,1.69h0c0,.94.75,1.7,1.69,1.71,0,0,0,0,.01,0h7.15c.94,0,1.7-.77,1.69-1.71h0c0-.93-.76-1.69-1.69-1.69h-7.15ZM36.29,67.46c-.93,0-1.69.76-1.69,1.69v19.15c0,.94.75,1.7,1.69,1.71h25.69c.94,0,1.7-.77,1.69-1.71v-19.15c0-.93-.76-1.69-1.69-1.69h-25.69ZM37.99,70.85h22.29v15.75h-22.29v-15.75ZM85.36,71.78c-.45-.01-.89.15-1.21.46-.68.64-.72,1.71-.09,2.4l2.24,2.4h-15.98c-.93,0-1.69.76-1.69,1.69,0,.94.75,1.7,1.69,1.71h15.98l-2.24,2.4c-.64.69-.6,1.76.09,2.4.69.63,1.76.59,2.4-.09l4.91-5.24c.61-.65.61-1.67,0-2.32l-4.91-5.25c-.31-.33-.73-.52-1.18-.53ZM45.56,77.03c-.94,0-1.7.75-1.71,1.69h0c0,.94.75,1.7,1.69,1.71,0,0,0,0,.01,0h7.15c.94,0,1.7-.77,1.69-1.71h0c0-.93-.76-1.69-1.69-1.69h-7.15Z"/>
  </g>
</svg>