<?xml version="1.0" encoding="UTF-8"?>
<svg id="Layer_2" data-name="Layer 2" xmlns="http://www.w3.org/2000/svg" viewBox="0 0 120.6 90">
  <defs>
    <style>
      .cls-1 {
        fill: #fff;
      }
    </style>
  </defs>
  <g id="Layer_1-2" data-name="Layer 1">
    <path class="cls-1" d="M116.19,23.15c2.43,0,4.4-1.98,4.4-4.4V4.4c0-2.43-1.98-4.4-4.4-4.4h-30.69c-2.43,0-4.4,1.98-4.4,4.4v14.34c0,2.43,1.98,4.4,4.4,4.4h13.73v11.31h-13.73c-2.43,0-4.4,1.98-4.4,4.4v5.57h-41.6v-5.57c0-2.43-1.98-4.4-4.4-4.4h-13.74v-11.31h13.74c2.43,0,4.4-1.98,4.4-4.4V4.4c0-2.43-1.98-4.4-4.4-4.4H4.4C1.98,0,0,1.98,0,4.4v14.34c0,2.43,1.98,4.4,4.4,4.4h13.73v11.31H4.4c-2.43,0-4.4,1.98-4.4,4.4v14.36c0,2.43,1.98,4.4,4.4,4.4h13.73v20.77c0,.89.73,1.62,1.62,1.62h25.3l.15.18c.26.31.55.55.89.73l12.94,8.78c.72.37,1.73.4,2.55-.03l12.86-8.73c.41-.22.71-.46.95-.75l.15-.19h25.3c.89,0,1.62-.73,1.62-1.62v-20.76h13.73c2.43,0,4.4-1.98,4.4-4.4v-14.34c0-2.43-1.98-4.4-4.4-4.4h-13.73v-11.31h13.74ZM4.4,19.93c-.64,0-1.18-.54-1.18-1.18V4.4c0-.65.53-1.18,1.18-1.18h30.69c.64,0,1.18.54,1.18,1.18v14.34c0,.65-.53,1.18-1.18,1.18H4.4ZM4.4,54.4c-.64,0-1.18-.54-1.18-1.18v-14.34c0-.64.54-1.18,1.18-1.18h30.69c.64,0,1.18.54,1.18,1.18v14.34c0,.64-.54,1.18-1.18,1.18H4.4ZM60.3,86.77l-11.82-8.37,11.82-8.37,11.82,8.37-11.82,8.37ZM99.23,76.78h-23.68l-.15-.18c-.27-.32-.57-.56-.9-.72l-12.94-8.79c-.78-.4-1.73-.4-2.55.03l-12.84,8.72c-.38.2-.69.45-.95.76l-.15.18h-23.7v-19.16h13.74c2.43,0,4.4-1.98,4.4-4.4v-5.55h41.6v5.55c0,2.43,1.98,4.4,4.4,4.4h13.73v19.16ZM116.18,37.7c.66,0,1.19.53,1.19,1.18v14.34c0,.64-.54,1.18-1.18,1.18h-30.69c-.65,0-1.18-.53-1.18-1.18v-14.34c0-.64.54-1.18,1.18-1.18h30.68ZM85.5,19.93c-.65,0-1.18-.53-1.18-1.18V4.4c0-.65.53-1.18,1.18-1.18h30.68c.65,0,1.18.53,1.18,1.18v14.34c0,.65-.53,1.18-1.18,1.18h-30.68Z"/>
  </g>
</svg>