<?xml version="1.0" encoding="UTF-8"?>
<svg id="Layer_2" data-name="Layer 2" xmlns="http://www.w3.org/2000/svg" viewBox="0 0 99.5 89">
  <defs>
    <style>
      .cls-1 {
        fill: #fff;
      }
    </style>
  </defs>
  <g id="Layer_1-2" data-name="Layer 1">
    <g>
      <path class="cls-1" d="M91.73,62.98c-1.39,0-2.52,1.13-2.52,2.51v10.5c0,4.4-3.58,7.98-7.98,7.98h-10.5c-1.39,0-2.52,1.13-2.52,2.51s1.13,2.52,2.52,2.52h10.5c7.18,0,13.01-5.84,13.02-13.02v-10.5c0-1.39-1.13-2.51-2.52-2.51Z"/>
      <path class="cls-1" d="M7.77,26.02c1.39,0,2.52-1.13,2.52-2.52v-10.5c0-4.4,3.58-7.98,7.98-7.98h10.5c1.39,0,2.52-1.13,2.52-2.52s-1.13-2.51-2.52-2.51h-10.5C11.09,0,5.25,5.84,5.25,13.01v10.5c0,1.39,1.13,2.52,2.52,2.52Z"/>
      <path class="cls-1" d="M70.74,5.03h10.5c4.4,0,7.98,3.58,7.98,7.98v10.5c0,1.39,1.13,2.52,2.52,2.52s2.52-1.13,2.52-2.52v-10.5C94.25,5.84,88.41,0,81.24,0h-10.49c-1.39,0-2.52,1.13-2.52,2.51s1.13,2.52,2.52,2.52Z"/>
      <path class="cls-1" d="M96.98,41.98H2.52c-1.39,0-2.52,1.13-2.52,2.51s1.13,2.52,2.52,2.52h94.46c1.39,0,2.52-1.13,2.52-2.52s-1.13-2.51-2.52-2.51Z"/>
      <path class="cls-1" d="M28.76,83.97h-10.5c-4.4,0-7.98-3.58-7.98-7.98v-10.5c0-1.39-1.13-2.51-2.52-2.51s-2.52,1.13-2.52,2.51v10.5c0,7.18,5.84,13.02,13.01,13.02h10.5c1.39,0,2.52-1.13,2.52-2.52s-1.13-2.51-2.52-2.51Z"/>
    </g>
  </g>
</svg>