<?xml version="1.0" encoding="UTF-8"?>
<svg id="Layer_2" data-name="Layer 2" xmlns="http://www.w3.org/2000/svg" viewBox="0 0 90.04 90">
  <defs>
    <style>
      .cls-1 {
        fill: #fff;
      }
    </style>
  </defs>
  <g id="Layer_1-2" data-name="Layer 1">
    <g>
      <path class="cls-1" d="M84.08,76.97c-1.33-.88-2.77-1.58-4.28-2.09,3.52-2.66,4.94-7.26,3.55-11.44-1.4-4.18-5.31-7-9.72-7s-8.32,2.82-9.72,7c-1.4,4.18.03,8.78,3.55,11.44-1.51.51-2.94,1.21-4.28,2.09-1.55,1.04-2.87,2.41-3.84,4-.99-1.6-2.31-2.96-3.87-4-1.33-.88-2.77-1.58-4.28-2.09,3.52-2.66,4.95-7.26,3.55-11.44-1.4-4.18-5.31-7-9.72-7s-8.32,2.82-9.72,7c-1.4,4.18.03,8.78,3.54,11.44-1.51.51-2.94,1.21-4.27,2.09-1.56,1.04-2.87,2.41-3.85,4-.98-1.6-2.29-2.96-3.85-4-1.33-.88-2.77-1.58-4.27-2.09,3.52-2.66,4.94-7.26,3.55-11.44-1.4-4.18-5.31-7-9.72-7s-8.32,2.82-9.72,7c-1.4,4.18.03,8.78,3.55,11.44-1.51.51-2.94,1.21-4.28,2.09C2.19,79.55-.06,83.85,0,88.44c0,.86.7,1.56,1.56,1.56h86.91c.86,0,1.56-.7,1.56-1.56.05-4.58-2.18-8.89-5.97-11.47h0ZM9.32,66.71c0-2.88,1.73-5.48,4.39-6.58,2.66-1.1,5.72-.5,7.76,1.54,2.04,2.03,2.65,5.09,1.55,7.75-1.1,2.66-3.69,4.4-6.57,4.4-3.93,0-7.13-3.18-7.13-7.12h0ZM28.71,86.9H3.26c.38-2.96,2.01-5.62,4.47-7.3,2.58-1.71,5.61-2.62,8.71-2.62,3.1,0,6.13.9,8.71,2.62,1.86,1.25,3.25,3.08,3.95,5.21-.18.68-.31,1.38-.39,2.09h0ZM37.91,66.71c0-2.89,1.73-5.49,4.39-6.6,2.67-1.11,5.74-.5,7.78,1.54,2.04,2.04,2.65,5.11,1.54,7.78-1.11,2.66-3.71,4.4-6.6,4.39-3.93,0-7.11-3.19-7.12-7.12ZM57.29,86.9h-25.45c.1-.74.28-1.47.52-2.17.7-2.13,2.09-3.96,3.95-5.21,2.59-1.69,5.62-2.59,8.72-2.57,3.1,0,6.13.91,8.72,2.62,1.86,1.25,3.24,3.09,3.94,5.21.24.7.42,1.43.52,2.17l-.92-.05ZM66.5,66.71c0-2.88,1.73-5.49,4.39-6.6,2.66-1.11,5.73-.5,7.77,1.54,2.04,2.04,2.66,5.1,1.56,7.77-1.1,2.67-3.7,4.41-6.58,4.41-1.89,0-3.71-.75-5.05-2.08-1.34-1.34-2.09-3.15-2.1-5.04h0ZM61.36,86.9c-.08-.73-.21-1.46-.41-2.17.71-2.13,2.1-3.96,3.95-5.21,2.58-1.71,5.61-2.62,8.71-2.62s6.13.91,8.71,2.62c2.46,1.68,4.08,4.34,4.46,7.3l-25.42.09Z"/>
      <path class="cls-1" d="M26.17,34.76h-9.38c-.86,0-1.56.7-1.56,1.56s.7,1.56,1.56,1.56h3.22l6.14,16.37c.22.62.8,1.04,1.46,1.04h34.8c.66,0,1.25-.42,1.46-1.04l6.18-16.37h3.26c.86,0,1.56-.7,1.56-1.56s-.7-1.56-1.56-1.56h-9.38c-.31-3.67-1.68-7.16-3.95-10.06-2.26-2.9-5.31-5.08-8.79-6.27,3.52-2.65,4.96-7.26,3.56-11.44-1.4-4.18-5.31-7-9.72-7s-8.32,2.82-9.72,7c-1.4,4.18.04,8.78,3.56,11.44-3.47,1.2-6.52,3.38-8.77,6.28-2.26,2.9-3.62,6.39-3.93,10.05h0ZM34.51,52.15l2.81-5.56h15.44l2.79,5.55h-21.03ZM66.68,37.89l-5.35,14.25h-2.29l-3.91-7.82c-.26-.53-.81-.86-1.4-.86h-17.38c-.59,0-1.14.33-1.4.86l-3.92,7.82h-2.29l-5.34-14.25h43.28ZM37.91,10.26c0-2.88,1.74-5.47,4.4-6.57,2.66-1.1,5.72-.48,7.75,1.55,2.04,2.04,2.64,5.1,1.54,7.76s-3.7,4.39-6.58,4.39c-3.93,0-7.12-3.2-7.12-7.13h0ZM45.03,20.52c3.92,0,7.7,1.46,10.61,4.09,2.91,2.63,4.74,6.25,5.13,10.15h-31.46c.39-3.9,2.22-7.52,5.12-10.15,2.91-2.63,6.69-4.09,10.61-4.09h0Z"/>
    </g>
  </g>
</svg>