<?xml version="1.0" encoding="UTF-8"?>
<svg id="Layer_2" data-name="Layer 2" xmlns="http://www.w3.org/2000/svg" viewBox="0 0 61.64 90">
  <defs>
    <style>
      .cls-1 {
        fill: #fff;
        fill-rule: evenodd;
      }
    </style>
  </defs>
  <g id="Layer_1-2" data-name="Layer 1">
    <path class="cls-1" d="M16.62,77.46c-.59-.6-1.49-.77-2.27-.45-.78.32-1.28,1.08-1.28,1.92s.5,1.6,1.28,1.92c.78.32,1.68.14,2.27-.45.8-.81.8-2.13,0-2.94h0ZM32.29,77.46h0c-.59-.6-1.49-.77-2.27-.45-.78.32-1.29,1.08-1.29,1.92s.51,1.6,1.29,1.92c.78.32,1.67.14,2.27-.45.81-.81.81-2.13,0-2.94h0ZM47.97,77.46h0c-.59-.6-1.49-.77-2.27-.45-.78.32-1.29,1.08-1.29,1.92s.51,1.6,1.29,1.92c.78.32,1.67.14,2.27-.45.81-.81.81-2.13,0-2.94h0ZM16.62,59.29c-.59-.59-1.49-.77-2.27-.45-.78.32-1.28,1.08-1.28,1.92s.5,1.6,1.28,1.92c.78.32,1.68.14,2.27-.45.8-.82.8-2.13,0-2.94h0ZM32.29,59.29h0c-.59-.59-1.49-.77-2.27-.45-.78.32-1.29,1.08-1.29,1.92s.51,1.6,1.29,1.92c.78.32,1.67.14,2.27-.45.81-.81.81-2.13,0-2.94h0ZM47.97,59.29h0c-.59-.59-1.49-.77-2.27-.45-.78.32-1.29,1.08-1.29,1.92s.51,1.6,1.29,1.92c.78.32,1.67.14,2.27-.45.81-.81.81-2.13,0-2.94h0ZM58.91,87.29H2.73V2.73h56.18v84.56ZM61.64,65.75v22.89c0,.36-.15.71-.41.96s-.61.4-.97.39H1.37c-.36,0-.71-.14-.97-.39-.26-.25-.4-.6-.4-.96V1.36c0-.36.14-.71.4-.96C.66.14,1.01,0,1.37,0h58.9c.36,0,.71.14.97.39s.4.6.4.96v64.39ZM12.64,32.2h36.32c.75,0,1.36-.61,1.36-1.36s-.61-1.36-1.36-1.36H12.68c-.75,0-1.36.61-1.36,1.36s.61,1.36,1.36,1.36h-.04ZM24.91,9.2h0c-.65-.65-1.63-.85-2.48-.5s-1.41,1.18-1.41,2.11.55,1.76,1.41,2.11c.85.35,1.84.16,2.48-.5.89-.89.89-2.33,0-3.22h0ZM25.91,15.11h0c-1.59.93-3.56.93-5.15,0-.83.19-1.58.64-2.15,1.27-.65.72-1.02,1.65-1.05,2.62v4.09h11.51v-4.09c0-1.91-1.3-3.56-3.16-4v.11ZM23.34,5.81h0c-1.68.02-3.24.89-4.15,2.3-.91,1.42-1.04,3.2-.36,4.73-2.42,1.1-3.98,3.5-4,6.16v5.46c0,.75.61,1.36,1.36,1.36h14.24c.36.01.71-.13.98-.38.26-.25.41-.59.42-.96v-5.49c-.04-2.65-1.59-5.04-4-6.14.73-1.55.61-3.36-.31-4.8-.92-1.44-2.51-2.32-4.22-2.32l.05.07ZM32.34,41.19h0c-.6-.59-1.49-.77-2.27-.45-.78.32-1.29,1.08-1.29,1.92s.51,1.6,1.29,1.92c.78.32,1.67.14,2.27-.45.81-.81.81-2.13,0-2.94h0ZM48.02,41.19h0c-.6-.59-1.49-.77-2.27-.45-.78.32-1.29,1.08-1.29,1.92s.51,1.6,1.29,1.92c.78.32,1.67.14,2.27-.45.81-.81.81-2.13,0-2.94h0ZM14.44,44l2.38-1.41-4.67-2.81v5.62l2.29-1.4ZM19.82,44l-8.35,5c-.42.25-.94.26-1.37.02-.43-.24-.69-.69-.69-1.18v-10.48c0-.5.29-.96.73-1.2.45-.24.98-.21,1.4.07l8.29,5h6.35c.61-2.04,2.48-3.44,4.61-3.44s4,1.4,4.61,3.44h6.45c.49-1.62,1.79-2.86,3.43-3.27,1.64-.41,3.38.07,4.57,1.27,1.2,1.2,1.67,2.93,1.26,4.57-.41,1.64-1.65,2.94-3.27,3.43v8.95c1.62.49,2.86,1.8,3.27,3.43.41,1.64-.07,3.38-1.26,4.57s-2.93,1.68-4.57,1.27c-1.64-.41-2.95-1.65-3.43-3.27h-6.42c-.61,2.04-2.48,3.44-4.61,3.44s-4-1.4-4.61-3.44h-6.45c-.47,1.56-1.69,2.78-3.25,3.24v8.95c1.56.46,2.79,1.69,3.25,3.25h6.45c.61-2.04,2.48-3.44,4.61-3.44s4,1.4,4.61,3.44h6.45c.68-2.29,2.94-3.74,5.3-3.39,2.36.34,4.12,2.37,4.12,4.76s-1.75,4.42-4.12,4.76c-2.37.34-4.63-1.11-5.3-3.39h-6.45c-.61,2.04-2.48,3.44-4.61,3.44s-4-1.4-4.61-3.44h-6.45c-.49,1.62-1.8,2.86-3.44,3.27-1.64.41-3.37-.07-4.57-1.26-1.2-1.2-1.68-2.93-1.27-4.57s1.65-2.95,3.27-3.43v-8.98c-1.62-.49-2.86-1.8-3.27-3.43-.41-1.64.07-3.38,1.27-4.57,1.2-1.2,2.93-1.68,4.57-1.27,1.64.41,2.95,1.65,3.44,3.27h6.45c.61-2.04,2.48-3.44,4.61-3.44s4,1.4,4.61,3.44h6.45c.46-1.56,1.69-2.79,3.25-3.25v-8.92c-1.55-.45-2.77-1.66-3.25-3.2h-6.45c-.61,2.04-2.48,3.44-4.61,3.44s-4-1.4-4.61-3.44h-6.39Z"/>
  </g>
</svg>