<?xml version="1.0" encoding="UTF-8"?>
<svg id="Layer_2" data-name="Layer 2" xmlns="http://www.w3.org/2000/svg" viewBox="0 0 64.1 90">
  <defs>
    <style>
      .cls-1 {
        fill: #fff;
        fill-rule: evenodd;
      }
    </style>
  </defs>
  <g id="Layer_1-2" data-name="Layer 1">
    <path class="cls-1" d="M35.58,0c7.63,0,14.57,1.41,19.62,3.68,5.49,2.47,8.88,6.05,8.88,10.15,0,1.49-.45,2.91-1.28,4.23v18.35c.35.56.64,1.16.85,1.77h0c1.37,3.93-.85,6.05-.85,6.96v18.09c.35.56.64,1.16.85,1.77h0c1.82,5.25-2.25,9.82-8.46,12.61-9.12,4.11-22.67,4.75-33.19,2.08-3.22,3.08-8.24,4.91-16.78,4.12-.63,1.43-1.2,3.04-1.7,4.85-.62,2.28-4.08,1.33-3.46-.94.62-2.27,1.36-4.26,2.16-6.01.06-.72-4.48-13.22,6.13-20.8v-16.02c-.04-.26-2.18-2.92-.86-6.72.21-.61.5-1.21.85-1.77v-18.36c-.84-1.32-1.28-2.75-1.28-4.23,0-4.1,3.4-7.67,8.88-10.15C21.01,1.41,27.95,0,35.58,0h0ZM4.99,76.9c3.29-4.66,5.98-6,8.86-8.2,1.87-1.43,4.06,1.42,2.18,2.86-2.74,2.1-5.85,3.67-8.99,8.79,17.13.84,15.74-11.85,20.26-20.24-11.16-.77-23.6,3.38-22.31,16.79h0ZM24.5,76.6c9.37,2.02,21.3,1.33,29.22-2.24,4.44-2,7.66-4.94,6.54-8.15h0c-.51-1.46-1.07-1.23-1.07-2.66v-14.99c-11.1,7.92-36.13,7.92-47.23,0v10.34c5.54-2.48,12.34-2.94,18.74-2.03,1.46.21,2.01,1.92,1.09,2.98-3.15,3.65-3.95,11.37-7.29,16.77h0ZM17.69,15.63h5.52c2.37,0,2.37-3.6,0-3.6h-5.52c-2.37,0-2.37,3.6,0,3.6ZM59.2,21.72c-11.1,7.92-36.14,7.92-47.23,0v15.24c0,1.2-1.28,1.66-1.28,3.7,0,2.55,2.58,4.99,6.76,6.87,17.41,7.84,45.93.78,42.83-8.15h0c-.42-1.22-1.07-1.45-1.07-2.41v-15.24ZM53.73,6.97c-9.95-4.48-26.33-4.48-36.28,0-15.89,7.16-1.29,17.1,18.14,17.1s34.03-9.94,18.14-17.1Z"/>
  </g>
</svg>